<?xml version="1.0" encoding="utf-8" standalone="no"?>
<!DOCTYPE svg PUBLIC "-//W3C//DTD SVG 1.1//EN"
  "http://www.w3.org/Graphics/SVG/1.1/DTD/svg11.dtd">
<svg xmlns:xlink="http://www.w3.org/1999/xlink" width="1512pt" height="504pt" viewBox="0 0 1512 504" xmlns="http://www.w3.org/2000/svg" version="1.1">
 <metadata>
  <rdf:RDF xmlns:dc="http://purl.org/dc/elements/1.1/" xmlns:cc="http://creativecommons.org/ns#" xmlns:rdf="http://www.w3.org/1999/02/22-rdf-syntax-ns#">
   <cc:Work>
    <dc:type rdf:resource="http://purl.org/dc/dcmitype/StillImage"/>
    <dc:date>2023-06-20T10:54:57.920635</dc:date>
    <dc:format>image/svg+xml</dc:format>
    <dc:creator>
     <cc:Agent>
      <dc:title>Matplotlib v3.5.2, https://matplotlib.org/</dc:title>
     </cc:Agent>
    </dc:creator>
   </cc:Work>
  </rdf:RDF>
 </metadata>
 <defs>
  <style type="text/css">*{stroke-linejoin: round; stroke-linecap: butt}</style>
 </defs>
 <g id="figure_1">
  <g id="patch_1">
   <path d="M 0 504 
L 1512 504 
L 1512 0 
L 0 0 
L 0 504 
z
" style="fill: none"/>
  </g>
  <g id="axes_1">
   <g id="patch_2">
    <path d="M 99.17 419.08 
L 541.86 419.08 
L 541.86 50.92 
L 99.17 50.92 
z
" style="fill: #ffffff"/>
   </g>
   <g id="patch_3">
    <path d="M 209.8425 419.08 
L 209.8425 419.08 
L 209.8425 419.08 
L 209.8425 419.08 
z
" clip-path="url(#peb44600587)" style="fill: #7f9dd2; stroke: #4d4d4d; stroke-width: 0.5; stroke-linejoin: miter"/>
   </g>
   <g id="patch_4">
    <path d="M 209.8425 419.08 
L 209.8425 419.08 
L 209.8425 419.08 
L 209.8425 419.08 
z
" clip-path="url(#peb44600587)" style="fill: #76808a; stroke: #4d4d4d; stroke-width: 0.5; stroke-linejoin: miter"/>
   </g>
   <g id="PolyCollection_1">
    <defs>
     <path id="m42657e6437" d="M 255.15562 -29.309181 
L 253.06738 -29.309181 
L 252.863696 -33.566166 
L 252.630847 -37.823152 
L 252.366908 -42.080137 
L 252.070257 -46.337123 
L 251.739672 -50.594108 
L 251.374406 -54.851094 
L 250.974264 -59.108079 
L 250.539668 -63.365065 
L 250.071703 -67.62205 
L 249.572144 -71.879036 
L 249.043458 -76.136021 
L 248.488789 -80.393007 
L 247.911905 -84.649992 
L 247.317126 -88.906978 
L 246.709224 -93.163963 
L 246.093302 -97.420948 
L 245.474655 -101.677934 
L 244.858612 -105.934919 
L 244.250377 -110.191905 
L 243.654861 -114.44889 
L 243.076523 -118.705876 
L 242.519215 -122.962861 
L 241.986047 -127.219847 
L 241.47927 -131.476832 
L 241.00018 -135.733818 
L 240.549054 -139.990803 
L 240.125108 -144.247789 
L 239.726491 -148.504774 
L 239.350304 -152.76176 
L 238.992648 -157.018745 
L 238.648702 -161.275731 
L 238.312821 -165.532716 
L 237.978662 -169.789702 
L 237.639326 -174.046687 
L 237.287514 -178.303673 
L 236.915706 -182.560658 
L 236.516334 -186.817643 
L 236.081974 -191.074629 
L 235.605531 -195.331614 
L 235.080426 -199.5886 
L 234.500771 -203.845585 
L 233.861543 -208.102571 
L 233.158733 -212.359556 
L 232.389489 -216.616542 
L 231.552228 -220.873527 
L 230.646738 -225.130513 
L 229.674246 -229.387498 
L 228.63747 -233.644484 
L 227.540643 -237.901469 
L 226.389512 -242.158455 
L 225.191319 -246.41544 
L 223.954753 -250.672426 
L 222.689888 -254.929411 
L 221.408097 -259.186397 
L 220.121946 -263.443382 
L 218.845071 -267.700368 
L 217.592037 -271.957353 
L 216.378169 -276.214339 
L 215.219371 -280.471324 
L 214.131913 -284.728309 
L 213.132201 -288.985295 
L 212.236516 -293.24228 
L 211.460736 -297.499266 
L 210.820027 -301.756251 
L 210.328523 -306.013237 
L 209.998993 -310.270222 
L 209.8425 -314.527208 
L 209.868074 -318.784193 
L 210.082399 -323.041179 
L 210.489532 -327.298164 
L 211.090678 -331.55515 
L 211.884015 -335.812135 
L 212.864603 -340.069121 
L 214.024367 -344.326106 
L 215.352182 -348.583092 
L 216.834046 -352.840077 
L 218.453345 -357.097063 
L 220.191213 -361.354048 
L 222.026956 -365.611034 
L 223.938553 -369.868019 
L 225.903181 -374.125004 
L 227.897783 -378.38199 
L 229.899619 -382.638975 
L 231.886804 -386.895961 
L 233.838799 -391.152946 
L 235.736848 -395.409932 
L 237.564329 -399.666917 
L 239.307025 -403.923903 
L 240.953306 -408.180888 
L 242.494206 -412.437874 
L 243.923423 -416.694859 
L 245.237224 -420.951845 
L 246.434286 -425.20883 
L 247.515472 -429.465816 
L 248.483567 -433.722801 
L 249.342976 -437.979787 
L 250.099418 -442.236772 
L 250.759611 -446.493758 
L 251.330966 -450.750743 
L 256.892034 -450.750743 
L 256.892034 -450.750743 
L 257.463389 -446.493758 
L 258.123582 -442.236772 
L 258.880024 -437.979787 
L 259.739433 -433.722801 
L 260.707528 -429.465816 
L 261.788714 -425.20883 
L 262.985776 -420.951845 
L 264.299577 -416.694859 
L 265.728794 -412.437874 
L 267.269694 -408.180888 
L 268.915975 -403.923903 
L 270.658671 -399.666917 
L 272.486152 -395.409932 
L 274.384201 -391.152946 
L 276.336196 -386.895961 
L 278.323381 -382.638975 
L 280.325217 -378.38199 
L 282.319819 -374.125004 
L 284.284447 -369.868019 
L 286.196044 -365.611034 
L 288.031787 -361.354048 
L 289.769655 -357.097063 
L 291.388954 -352.840077 
L 292.870818 -348.583092 
L 294.198633 -344.326106 
L 295.358397 -340.069121 
L 296.338985 -335.812135 
L 297.132322 -331.55515 
L 297.733468 -327.298164 
L 298.140601 -323.041179 
L 298.354926 -318.784193 
L 298.3805 -314.527208 
L 298.224007 -310.270222 
L 297.894477 -306.013237 
L 297.402973 -301.756251 
L 296.762264 -297.499266 
L 295.986484 -293.24228 
L 295.090799 -288.985295 
L 294.091087 -284.728309 
L 293.003629 -280.471324 
L 291.844831 -276.214339 
L 290.630963 -271.957353 
L 289.377929 -267.700368 
L 288.101054 -263.443382 
L 286.814903 -259.186397 
L 285.533112 -254.929411 
L 284.268247 -250.672426 
L 283.031681 -246.41544 
L 281.833488 -242.158455 
L 280.682357 -237.901469 
L 279.58553 -233.644484 
L 278.548754 -229.387498 
L 277.576262 -225.130513 
L 276.670772 -220.873527 
L 275.833511 -216.616542 
L 275.064267 -212.359556 
L 274.361457 -208.102571 
L 273.722229 -203.845585 
L 273.142574 -199.5886 
L 272.617469 -195.331614 
L 272.141026 -191.074629 
L 271.706666 -186.817643 
L 271.307294 -182.560658 
L 270.935486 -178.303673 
L 270.583674 -174.046687 
L 270.244338 -169.789702 
L 269.910179 -165.532716 
L 269.574298 -161.275731 
L 269.230352 -157.018745 
L 268.872696 -152.76176 
L 268.496509 -148.504774 
L 268.097892 -144.247789 
L 267.673946 -139.990803 
L 267.22282 -135.733818 
L 266.74373 -131.476832 
L 266.236953 -127.219847 
L 265.703785 -122.962861 
L 265.146477 -118.705876 
L 264.568139 -114.44889 
L 263.972623 -110.191905 
L 263.364388 -105.934919 
L 262.748345 -101.677934 
L 262.129698 -97.420948 
L 261.513776 -93.163963 
L 260.905874 -88.906978 
L 260.311095 -84.649992 
L 259.734211 -80.393007 
L 259.179542 -76.136021 
L 258.650856 -71.879036 
L 258.151297 -67.62205 
L 257.683332 -63.365065 
L 257.248736 -59.108079 
L 256.848594 -54.851094 
L 256.483328 -50.594108 
L 256.152743 -46.337123 
L 255.856092 -42.080137 
L 255.592153 -37.823152 
L 255.359304 -33.566166 
L 255.15562 -29.309181 
z
" style="stroke: #4d4d4d; stroke-opacity: 0.7"/>
    </defs>
    <g clip-path="url(#peb44600587)">
     <use xlink:href="#m42657e6437" x="0" y="504" style="fill: #76808a; fill-opacity: 0.7; stroke: #4d4d4d; stroke-opacity: 0.7"/>
    </g>
   </g>
   <g id="PolyCollection_2">
    <defs>
     <path id="mf2042f0e83" d="M 476.254495 -142.120023 
L 474.658505 -142.120023 
L 474.505099 -146.130353 
L 474.330577 -150.140682 
L 474.133815 -154.151012 
L 473.913984 -158.161342 
L 473.670613 -162.171671 
L 473.403649 -166.182001 
L 473.113507 -170.19233 
L 472.801104 -174.20266 
L 472.467885 -178.21299 
L 472.115822 -182.223319 
L 471.747402 -186.233649 
L 471.365586 -190.243978 
L 470.973757 -194.254308 
L 470.575642 -198.264638 
L 470.175225 -202.274967 
L 469.776648 -206.285297 
L 469.384103 -210.295626 
L 469.001728 -214.305956 
L 468.633506 -218.316286 
L 468.28317 -222.326615 
L 467.954125 -226.336945 
L 467.649384 -230.347274 
L 467.371521 -234.357604 
L 467.122638 -238.367934 
L 466.904349 -242.378263 
L 466.717776 -246.388593 
L 466.56354 -250.398922 
L 466.441769 -254.409252 
L 466.352084 -258.419582 
L 466.293586 -262.429911 
L 466.264824 -266.440241 
L 466.263746 -270.45057 
L 466.287633 -274.4609 
L 466.333022 -278.47123 
L 466.395608 -282.481559 
L 466.47015 -286.491889 
L 466.550375 -290.502218 
L 466.628899 -294.512548 
L 466.697168 -298.522878 
L 466.745435 -302.533207 
L 466.762786 -306.543537 
L 466.737219 -310.553866 
L 466.655785 -314.564196 
L 466.504804 -318.574526 
L 466.270148 -322.584855 
L 465.937595 -326.595185 
L 465.493252 -330.605514 
L 464.924037 -334.615844 
L 464.218201 -338.626174 
L 463.365889 -342.636503 
L 462.359696 -346.646833 
L 461.195229 -350.657162 
L 459.871613 -354.667492 
L 458.391949 -358.677821 
L 456.763667 -362.688151 
L 454.998774 -366.698481 
L 453.113963 -370.70881 
L 451.130558 -374.71914 
L 449.074299 -378.729469 
L 446.974939 -382.739799 
L 444.86568 -386.750129 
L 442.782429 -390.760458 
L 440.762914 -394.770788 
L 438.84568 -398.781117 
L 437.068995 -402.791447 
L 435.469714 -406.801777 
L 434.082138 -410.812106 
L 432.936924 -414.822436 
L 432.060093 -418.832765 
L 431.472168 -422.843095 
L 431.1875 -426.853425 
L 431.213796 -430.863754 
L 431.551887 -434.874084 
L 432.195731 -438.884413 
L 433.13266 -442.894743 
L 434.34386 -446.905073 
L 435.80505 -450.915402 
L 437.487338 -454.925732 
L 439.358208 -458.936061 
L 441.38259 -462.946391 
L 443.523975 -466.956721 
L 445.745516 -470.96705 
L 448.011073 -474.97738 
L 450.286171 -478.987709 
L 452.538825 -482.998039 
L 454.740218 -487.008369 
L 456.865213 -491.018698 
L 458.892687 -495.029028 
L 460.805707 -499.039357 
L 462.591536 -503.049687 
L 464.241498 -507.060017 
L 465.75073 -511.070346 
L 467.117823 -515.080676 
L 468.344409 -519.091005 
L 469.434692 -523.101335 
L 470.394963 -527.111665 
L 471.233119 -531.121994 
L 471.958202 -535.132324 
L 472.579973 -539.142653 
L 478.333027 -539.142653 
L 478.333027 -539.142653 
L 478.954798 -535.132324 
L 479.679881 -531.121994 
L 480.518037 -527.111665 
L 481.478308 -523.101335 
L 482.568591 -519.091005 
L 483.795177 -515.080676 
L 485.16227 -511.070346 
L 486.671502 -507.060017 
L 488.321464 -503.049687 
L 490.107293 -499.039357 
L 492.020313 -495.029028 
L 494.047787 -491.018698 
L 496.172782 -487.008369 
L 498.374175 -482.998039 
L 500.626829 -478.987709 
L 502.901927 -474.97738 
L 505.167484 -470.96705 
L 507.389025 -466.956721 
L 509.53041 -462.946391 
L 511.554792 -458.936061 
L 513.425662 -454.925732 
L 515.10795 -450.915402 
L 516.56914 -446.905073 
L 517.78034 -442.894743 
L 518.717269 -438.884413 
L 519.361113 -434.874084 
L 519.699204 -430.863754 
L 519.7255 -426.853425 
L 519.440832 -422.843095 
L 518.852907 -418.832765 
L 517.976076 -414.822436 
L 516.830862 -410.812106 
L 515.443286 -406.801777 
L 513.844005 -402.791447 
L 512.06732 -398.781117 
L 510.150086 -394.770788 
L 508.130571 -390.760458 
L 506.04732 -386.750129 
L 503.938061 -382.739799 
L 501.838701 -378.729469 
L 499.782442 -374.71914 
L 497.799037 -370.70881 
L 495.914226 -366.698481 
L 494.149333 -362.688151 
L 492.521051 -358.677821 
L 491.041387 -354.667492 
L 489.717771 -350.657162 
L 488.553304 -346.646833 
L 487.547111 -342.636503 
L 486.694799 -338.626174 
L 485.988963 -334.615844 
L 485.419748 -330.605514 
L 484.975405 -326.595185 
L 484.642852 -322.584855 
L 484.408196 -318.574526 
L 484.257215 -314.564196 
L 484.175781 -310.553866 
L 484.150214 -306.543537 
L 484.167565 -302.533207 
L 484.215832 -298.522878 
L 484.284101 -294.512548 
L 484.362625 -290.502218 
L 484.44285 -286.491889 
L 484.517392 -282.481559 
L 484.579978 -278.47123 
L 484.625367 -274.4609 
L 484.649254 -270.45057 
L 484.648176 -266.440241 
L 484.619414 -262.429911 
L 484.560916 -258.419582 
L 484.471231 -254.409252 
L 484.34946 -250.398922 
L 484.195224 -246.388593 
L 484.008651 -242.378263 
L 483.790362 -238.367934 
L 483.541479 -234.357604 
L 483.263616 -230.347274 
L 482.958875 -226.336945 
L 482.62983 -222.326615 
L 482.279494 -218.316286 
L 481.911272 -214.305956 
L 481.528897 -210.295626 
L 481.136352 -206.285297 
L 480.737775 -202.274967 
L 480.337358 -198.264638 
L 479.939243 -194.254308 
L 479.547414 -190.243978 
L 479.165598 -186.233649 
L 478.797178 -182.223319 
L 478.445115 -178.21299 
L 478.111896 -174.20266 
L 477.799493 -170.19233 
L 477.509351 -166.182001 
L 477.242387 -162.171671 
L 476.999016 -158.161342 
L 476.779185 -154.151012 
L 476.582423 -150.140682 
L 476.407901 -146.130353 
L 476.254495 -142.120023 
z
" style="stroke: #4d4d4d; stroke-opacity: 0.7"/>
    </defs>
    <g clip-path="url(#peb44600587)">
     <use xlink:href="#mf2042f0e83" x="0" y="504" style="fill: #76808a; fill-opacity: 0.7; stroke: #4d4d4d; stroke-opacity: 0.7"/>
    </g>
   </g>
   <g id="PathCollection_1"/>
   <g id="PathCollection_2"/>
   <g id="matplotlib.axis_1">
    <g id="xtick_1">
     <g id="line2d_1">
      <defs>
       <path id="m21eb6b9991" d="M 0 0 
L 0 3.5 
" style="stroke: #000000; stroke-width: 0.8"/>
      </defs>
      <g>
       <use xlink:href="#m21eb6b9991" x="209.8425" y="419.08" style="stroke: #000000; stroke-width: 0.8"/>
      </g>
     </g>
     <g id="text_1">
      <!-- S. aureus -->
      <g transform="translate(153.735 444.31625)scale(0.24 -0.24)">
       <defs>
        <path id="DejaVuSans-53" d="M 3425 4513 
L 3425 3897 
Q 3066 4069 2747 4153 
Q 2428 4238 2131 4238 
Q 1616 4238 1336 4038 
Q 1056 3838 1056 3469 
Q 1056 3159 1242 3001 
Q 1428 2844 1947 2747 
L 2328 2669 
Q 3034 2534 3370 2195 
Q 3706 1856 3706 1288 
Q 3706 609 3251 259 
Q 2797 -91 1919 -91 
Q 1588 -91 1214 -16 
Q 841 59 441 206 
L 441 856 
Q 825 641 1194 531 
Q 1563 422 1919 422 
Q 2459 422 2753 634 
Q 3047 847 3047 1241 
Q 3047 1584 2836 1778 
Q 2625 1972 2144 2069 
L 1759 2144 
Q 1053 2284 737 2584 
Q 422 2884 422 3419 
Q 422 4038 858 4394 
Q 1294 4750 2059 4750 
Q 2388 4750 2728 4690 
Q 3069 4631 3425 4513 
z
" transform="scale(0.015625)"/>
        <path id="DejaVuSans-2e" d="M 684 794 
L 1344 794 
L 1344 0 
L 684 0 
L 684 794 
z
" transform="scale(0.015625)"/>
        <path id="DejaVuSans-20" transform="scale(0.015625)"/>
        <path id="DejaVuSans-61" d="M 2194 1759 
Q 1497 1759 1228 1600 
Q 959 1441 959 1056 
Q 959 750 1161 570 
Q 1363 391 1709 391 
Q 2188 391 2477 730 
Q 2766 1069 2766 1631 
L 2766 1759 
L 2194 1759 
z
M 3341 1997 
L 3341 0 
L 2766 0 
L 2766 531 
Q 2569 213 2275 61 
Q 1981 -91 1556 -91 
Q 1019 -91 701 211 
Q 384 513 384 1019 
Q 384 1609 779 1909 
Q 1175 2209 1959 2209 
L 2766 2209 
L 2766 2266 
Q 2766 2663 2505 2880 
Q 2244 3097 1772 3097 
Q 1472 3097 1187 3025 
Q 903 2953 641 2809 
L 641 3341 
Q 956 3463 1253 3523 
Q 1550 3584 1831 3584 
Q 2591 3584 2966 3190 
Q 3341 2797 3341 1997 
z
" transform="scale(0.015625)"/>
        <path id="DejaVuSans-75" d="M 544 1381 
L 544 3500 
L 1119 3500 
L 1119 1403 
Q 1119 906 1312 657 
Q 1506 409 1894 409 
Q 2359 409 2629 706 
Q 2900 1003 2900 1516 
L 2900 3500 
L 3475 3500 
L 3475 0 
L 2900 0 
L 2900 538 
Q 2691 219 2414 64 
Q 2138 -91 1772 -91 
Q 1169 -91 856 284 
Q 544 659 544 1381 
z
M 1991 3584 
L 1991 3584 
z
" transform="scale(0.015625)"/>
        <path id="DejaVuSans-72" d="M 2631 2963 
Q 2534 3019 2420 3045 
Q 2306 3072 2169 3072 
Q 1681 3072 1420 2755 
Q 1159 2438 1159 1844 
L 1159 0 
L 581 0 
L 581 3500 
L 1159 3500 
L 1159 2956 
Q 1341 3275 1631 3429 
Q 1922 3584 2338 3584 
Q 2397 3584 2469 3576 
Q 2541 3569 2628 3553 
L 2631 2963 
z
" transform="scale(0.015625)"/>
        <path id="DejaVuSans-65" d="M 3597 1894 
L 3597 1613 
L 953 1613 
Q 991 1019 1311 708 
Q 1631 397 2203 397 
Q 2534 397 2845 478 
Q 3156 559 3463 722 
L 3463 178 
Q 3153 47 2828 -22 
Q 2503 -91 2169 -91 
Q 1331 -91 842 396 
Q 353 884 353 1716 
Q 353 2575 817 3079 
Q 1281 3584 2069 3584 
Q 2775 3584 3186 3129 
Q 3597 2675 3597 1894 
z
M 3022 2063 
Q 3016 2534 2758 2815 
Q 2500 3097 2075 3097 
Q 1594 3097 1305 2825 
Q 1016 2553 972 2059 
L 3022 2063 
z
" transform="scale(0.015625)"/>
        <path id="DejaVuSans-73" d="M 2834 3397 
L 2834 2853 
Q 2591 2978 2328 3040 
Q 2066 3103 1784 3103 
Q 1356 3103 1142 2972 
Q 928 2841 928 2578 
Q 928 2378 1081 2264 
Q 1234 2150 1697 2047 
L 1894 2003 
Q 2506 1872 2764 1633 
Q 3022 1394 3022 966 
Q 3022 478 2636 193 
Q 2250 -91 1575 -91 
Q 1294 -91 989 -36 
Q 684 19 347 128 
L 347 722 
Q 666 556 975 473 
Q 1284 391 1588 391 
Q 1994 391 2212 530 
Q 2431 669 2431 922 
Q 2431 1156 2273 1281 
Q 2116 1406 1581 1522 
L 1381 1569 
Q 847 1681 609 1914 
Q 372 2147 372 2553 
Q 372 3047 722 3315 
Q 1072 3584 1716 3584 
Q 2034 3584 2315 3537 
Q 2597 3491 2834 3397 
z
" transform="scale(0.015625)"/>
       </defs>
       <use xlink:href="#DejaVuSans-53"/>
       <use xlink:href="#DejaVuSans-2e" x="63.476562"/>
       <use xlink:href="#DejaVuSans-20" x="95.263672"/>
       <use xlink:href="#DejaVuSans-61" x="127.050781"/>
       <use xlink:href="#DejaVuSans-75" x="188.330078"/>
       <use xlink:href="#DejaVuSans-72" x="251.708984"/>
       <use xlink:href="#DejaVuSans-65" x="290.572266"/>
       <use xlink:href="#DejaVuSans-75" x="352.095703"/>
       <use xlink:href="#DejaVuSans-73" x="415.474609"/>
      </g>
     </g>
    </g>
    <g id="xtick_2">
     <g id="line2d_2">
      <g>
       <use xlink:href="#m21eb6b9991" x="431.1875" y="419.08" style="stroke: #000000; stroke-width: 0.8"/>
      </g>
     </g>
     <g id="text_2">
      <!-- N. gonorrhoeae -->
      <g transform="translate(338.159375 444.31625)scale(0.24 -0.24)">
       <defs>
        <path id="DejaVuSans-4e" d="M 628 4666 
L 1478 4666 
L 3547 763 
L 3547 4666 
L 4159 4666 
L 4159 0 
L 3309 0 
L 1241 3903 
L 1241 0 
L 628 0 
L 628 4666 
z
" transform="scale(0.015625)"/>
        <path id="DejaVuSans-67" d="M 2906 1791 
Q 2906 2416 2648 2759 
Q 2391 3103 1925 3103 
Q 1463 3103 1205 2759 
Q 947 2416 947 1791 
Q 947 1169 1205 825 
Q 1463 481 1925 481 
Q 2391 481 2648 825 
Q 2906 1169 2906 1791 
z
M 3481 434 
Q 3481 -459 3084 -895 
Q 2688 -1331 1869 -1331 
Q 1566 -1331 1297 -1286 
Q 1028 -1241 775 -1147 
L 775 -588 
Q 1028 -725 1275 -790 
Q 1522 -856 1778 -856 
Q 2344 -856 2625 -561 
Q 2906 -266 2906 331 
L 2906 616 
Q 2728 306 2450 153 
Q 2172 0 1784 0 
Q 1141 0 747 490 
Q 353 981 353 1791 
Q 353 2603 747 3093 
Q 1141 3584 1784 3584 
Q 2172 3584 2450 3431 
Q 2728 3278 2906 2969 
L 2906 3500 
L 3481 3500 
L 3481 434 
z
" transform="scale(0.015625)"/>
        <path id="DejaVuSans-6f" d="M 1959 3097 
Q 1497 3097 1228 2736 
Q 959 2375 959 1747 
Q 959 1119 1226 758 
Q 1494 397 1959 397 
Q 2419 397 2687 759 
Q 2956 1122 2956 1747 
Q 2956 2369 2687 2733 
Q 2419 3097 1959 3097 
z
M 1959 3584 
Q 2709 3584 3137 3096 
Q 3566 2609 3566 1747 
Q 3566 888 3137 398 
Q 2709 -91 1959 -91 
Q 1206 -91 779 398 
Q 353 888 353 1747 
Q 353 2609 779 3096 
Q 1206 3584 1959 3584 
z
" transform="scale(0.015625)"/>
        <path id="DejaVuSans-6e" d="M 3513 2113 
L 3513 0 
L 2938 0 
L 2938 2094 
Q 2938 2591 2744 2837 
Q 2550 3084 2163 3084 
Q 1697 3084 1428 2787 
Q 1159 2491 1159 1978 
L 1159 0 
L 581 0 
L 581 3500 
L 1159 3500 
L 1159 2956 
Q 1366 3272 1645 3428 
Q 1925 3584 2291 3584 
Q 2894 3584 3203 3211 
Q 3513 2838 3513 2113 
z
" transform="scale(0.015625)"/>
        <path id="DejaVuSans-68" d="M 3513 2113 
L 3513 0 
L 2938 0 
L 2938 2094 
Q 2938 2591 2744 2837 
Q 2550 3084 2163 3084 
Q 1697 3084 1428 2787 
Q 1159 2491 1159 1978 
L 1159 0 
L 581 0 
L 581 4863 
L 1159 4863 
L 1159 2956 
Q 1366 3272 1645 3428 
Q 1925 3584 2291 3584 
Q 2894 3584 3203 3211 
Q 3513 2838 3513 2113 
z
" transform="scale(0.015625)"/>
       </defs>
       <use xlink:href="#DejaVuSans-4e"/>
       <use xlink:href="#DejaVuSans-2e" x="74.804688"/>
       <use xlink:href="#DejaVuSans-20" x="106.591797"/>
       <use xlink:href="#DejaVuSans-67" x="138.378906"/>
       <use xlink:href="#DejaVuSans-6f" x="201.855469"/>
       <use xlink:href="#DejaVuSans-6e" x="263.037109"/>
       <use xlink:href="#DejaVuSans-6f" x="326.416016"/>
       <use xlink:href="#DejaVuSans-72" x="387.597656"/>
       <use xlink:href="#DejaVuSans-72" x="426.960938"/>
       <use xlink:href="#DejaVuSans-68" x="466.324219"/>
       <use xlink:href="#DejaVuSans-6f" x="529.703125"/>
       <use xlink:href="#DejaVuSans-65" x="590.884766"/>
       <use xlink:href="#DejaVuSans-61" x="652.408203"/>
       <use xlink:href="#DejaVuSans-65" x="713.6875"/>
      </g>
     </g>
    </g>
    <g id="text_3">
     <!-- Model -->
     <g transform="translate(284.483125 471.54375)scale(0.24 -0.24)">
      <defs>
       <path id="DejaVuSans-4d" d="M 628 4666 
L 1569 4666 
L 2759 1491 
L 3956 4666 
L 4897 4666 
L 4897 0 
L 4281 0 
L 4281 4097 
L 3078 897 
L 2444 897 
L 1241 4097 
L 1241 0 
L 628 0 
L 628 4666 
z
" transform="scale(0.015625)"/>
       <path id="DejaVuSans-64" d="M 2906 2969 
L 2906 4863 
L 3481 4863 
L 3481 0 
L 2906 0 
L 2906 525 
Q 2725 213 2448 61 
Q 2172 -91 1784 -91 
Q 1150 -91 751 415 
Q 353 922 353 1747 
Q 353 2572 751 3078 
Q 1150 3584 1784 3584 
Q 2172 3584 2448 3432 
Q 2725 3281 2906 2969 
z
M 947 1747 
Q 947 1113 1208 752 
Q 1469 391 1925 391 
Q 2381 391 2643 752 
Q 2906 1113 2906 1747 
Q 2906 2381 2643 2742 
Q 2381 3103 1925 3103 
Q 1469 3103 1208 2742 
Q 947 2381 947 1747 
z
" transform="scale(0.015625)"/>
       <path id="DejaVuSans-6c" d="M 603 4863 
L 1178 4863 
L 1178 0 
L 603 0 
L 603 4863 
z
" transform="scale(0.015625)"/>
      </defs>
      <use xlink:href="#DejaVuSans-4d"/>
      <use xlink:href="#DejaVuSans-6f" x="86.279297"/>
      <use xlink:href="#DejaVuSans-64" x="147.460938"/>
      <use xlink:href="#DejaVuSans-65" x="210.9375"/>
      <use xlink:href="#DejaVuSans-6c" x="272.460938"/>
     </g>
    </g>
   </g>
   <g id="matplotlib.axis_2">
    <g id="ytick_1">
     <g id="line2d_3">
      <defs>
       <path id="m8230b754d6" d="M 0 0 
L -3.5 0 
" style="stroke: #000000; stroke-width: 0.8"/>
      </defs>
      <g>
       <use xlink:href="#m8230b754d6" x="99.17" y="419.08" style="stroke: #000000; stroke-width: 0.8"/>
      </g>
     </g>
     <g id="text_4">
      <!-- 0.0 -->
      <g transform="translate(54.0025 428.198125)scale(0.24 -0.24)">
       <defs>
        <path id="DejaVuSans-30" d="M 2034 4250 
Q 1547 4250 1301 3770 
Q 1056 3291 1056 2328 
Q 1056 1369 1301 889 
Q 1547 409 2034 409 
Q 2525 409 2770 889 
Q 3016 1369 3016 2328 
Q 3016 3291 2770 3770 
Q 2525 4250 2034 4250 
z
M 2034 4750 
Q 2819 4750 3233 4129 
Q 3647 3509 3647 2328 
Q 3647 1150 3233 529 
Q 2819 -91 2034 -91 
Q 1250 -91 836 529 
Q 422 1150 422 2328 
Q 422 3509 836 4129 
Q 1250 4750 2034 4750 
z
" transform="scale(0.015625)"/>
       </defs>
       <use xlink:href="#DejaVuSans-30"/>
       <use xlink:href="#DejaVuSans-2e" x="63.623047"/>
       <use xlink:href="#DejaVuSans-30" x="95.410156"/>
      </g>
     </g>
    </g>
    <g id="ytick_2">
     <g id="line2d_4">
      <g>
       <use xlink:href="#m8230b754d6" x="99.17" y="345.448" style="stroke: #000000; stroke-width: 0.8"/>
      </g>
     </g>
     <g id="text_5">
      <!-- 0.2 -->
      <g transform="translate(54.0025 354.566125)scale(0.24 -0.24)">
       <defs>
        <path id="DejaVuSans-32" d="M 1228 531 
L 3431 531 
L 3431 0 
L 469 0 
L 469 531 
Q 828 903 1448 1529 
Q 2069 2156 2228 2338 
Q 2531 2678 2651 2914 
Q 2772 3150 2772 3378 
Q 2772 3750 2511 3984 
Q 2250 4219 1831 4219 
Q 1534 4219 1204 4116 
Q 875 4013 500 3803 
L 500 4441 
Q 881 4594 1212 4672 
Q 1544 4750 1819 4750 
Q 2544 4750 2975 4387 
Q 3406 4025 3406 3419 
Q 3406 3131 3298 2873 
Q 3191 2616 2906 2266 
Q 2828 2175 2409 1742 
Q 1991 1309 1228 531 
z
" transform="scale(0.015625)"/>
       </defs>
       <use xlink:href="#DejaVuSans-30"/>
       <use xlink:href="#DejaVuSans-2e" x="63.623047"/>
       <use xlink:href="#DejaVuSans-32" x="95.410156"/>
      </g>
     </g>
    </g>
    <g id="ytick_3">
     <g id="line2d_5">
      <g>
       <use xlink:href="#m8230b754d6" x="99.17" y="271.816" style="stroke: #000000; stroke-width: 0.8"/>
      </g>
     </g>
     <g id="text_6">
      <!-- 0.4 -->
      <g transform="translate(54.0025 280.934125)scale(0.24 -0.24)">
       <defs>
        <path id="DejaVuSans-34" d="M 2419 4116 
L 825 1625 
L 2419 1625 
L 2419 4116 
z
M 2253 4666 
L 3047 4666 
L 3047 1625 
L 3713 1625 
L 3713 1100 
L 3047 1100 
L 3047 0 
L 2419 0 
L 2419 1100 
L 313 1100 
L 313 1709 
L 2253 4666 
z
" transform="scale(0.015625)"/>
       </defs>
       <use xlink:href="#DejaVuSans-30"/>
       <use xlink:href="#DejaVuSans-2e" x="63.623047"/>
       <use xlink:href="#DejaVuSans-34" x="95.410156"/>
      </g>
     </g>
    </g>
    <g id="ytick_4">
     <g id="line2d_6">
      <g>
       <use xlink:href="#m8230b754d6" x="99.17" y="198.184" style="stroke: #000000; stroke-width: 0.8"/>
      </g>
     </g>
     <g id="text_7">
      <!-- 0.6 -->
      <g transform="translate(54.0025 207.302125)scale(0.24 -0.24)">
       <defs>
        <path id="DejaVuSans-36" d="M 2113 2584 
Q 1688 2584 1439 2293 
Q 1191 2003 1191 1497 
Q 1191 994 1439 701 
Q 1688 409 2113 409 
Q 2538 409 2786 701 
Q 3034 994 3034 1497 
Q 3034 2003 2786 2293 
Q 2538 2584 2113 2584 
z
M 3366 4563 
L 3366 3988 
Q 3128 4100 2886 4159 
Q 2644 4219 2406 4219 
Q 1781 4219 1451 3797 
Q 1122 3375 1075 2522 
Q 1259 2794 1537 2939 
Q 1816 3084 2150 3084 
Q 2853 3084 3261 2657 
Q 3669 2231 3669 1497 
Q 3669 778 3244 343 
Q 2819 -91 2113 -91 
Q 1303 -91 875 529 
Q 447 1150 447 2328 
Q 447 3434 972 4092 
Q 1497 4750 2381 4750 
Q 2619 4750 2861 4703 
Q 3103 4656 3366 4563 
z
" transform="scale(0.015625)"/>
       </defs>
       <use xlink:href="#DejaVuSans-30"/>
       <use xlink:href="#DejaVuSans-2e" x="63.623047"/>
       <use xlink:href="#DejaVuSans-36" x="95.410156"/>
      </g>
     </g>
    </g>
    <g id="ytick_5">
     <g id="line2d_7">
      <g>
       <use xlink:href="#m8230b754d6" x="99.17" y="124.552" style="stroke: #000000; stroke-width: 0.8"/>
      </g>
     </g>
     <g id="text_8">
      <!-- 0.8 -->
      <g transform="translate(54.0025 133.670125)scale(0.24 -0.24)">
       <defs>
        <path id="DejaVuSans-38" d="M 2034 2216 
Q 1584 2216 1326 1975 
Q 1069 1734 1069 1313 
Q 1069 891 1326 650 
Q 1584 409 2034 409 
Q 2484 409 2743 651 
Q 3003 894 3003 1313 
Q 3003 1734 2745 1975 
Q 2488 2216 2034 2216 
z
M 1403 2484 
Q 997 2584 770 2862 
Q 544 3141 544 3541 
Q 544 4100 942 4425 
Q 1341 4750 2034 4750 
Q 2731 4750 3128 4425 
Q 3525 4100 3525 3541 
Q 3525 3141 3298 2862 
Q 3072 2584 2669 2484 
Q 3125 2378 3379 2068 
Q 3634 1759 3634 1313 
Q 3634 634 3220 271 
Q 2806 -91 2034 -91 
Q 1263 -91 848 271 
Q 434 634 434 1313 
Q 434 1759 690 2068 
Q 947 2378 1403 2484 
z
M 1172 3481 
Q 1172 3119 1398 2916 
Q 1625 2713 2034 2713 
Q 2441 2713 2670 2916 
Q 2900 3119 2900 3481 
Q 2900 3844 2670 4047 
Q 2441 4250 2034 4250 
Q 1625 4250 1398 4047 
Q 1172 3844 1172 3481 
z
" transform="scale(0.015625)"/>
       </defs>
       <use xlink:href="#DejaVuSans-30"/>
       <use xlink:href="#DejaVuSans-2e" x="63.623047"/>
       <use xlink:href="#DejaVuSans-38" x="95.410156"/>
      </g>
     </g>
    </g>
    <g id="ytick_6">
     <g id="line2d_8">
      <g>
       <use xlink:href="#m8230b754d6" x="99.17" y="50.92" style="stroke: #000000; stroke-width: 0.8"/>
      </g>
     </g>
     <g id="text_9">
      <!-- 1.0 -->
      <g transform="translate(54.0025 60.038125)scale(0.24 -0.24)">
       <defs>
        <path id="DejaVuSans-31" d="M 794 531 
L 1825 531 
L 1825 4091 
L 703 3866 
L 703 4441 
L 1819 4666 
L 2450 4666 
L 2450 531 
L 3481 531 
L 3481 0 
L 794 0 
L 794 531 
z
" transform="scale(0.015625)"/>
       </defs>
       <use xlink:href="#DejaVuSans-31"/>
       <use xlink:href="#DejaVuSans-2e" x="63.623047"/>
       <use xlink:href="#DejaVuSans-30" x="95.410156"/>
      </g>
     </g>
    </g>
    <g id="text_10">
     <!-- Score -->
     <g transform="translate(45.01125 268.605625)rotate(-90)scale(0.24 -0.24)">
      <defs>
       <path id="DejaVuSans-63" d="M 3122 3366 
L 3122 2828 
Q 2878 2963 2633 3030 
Q 2388 3097 2138 3097 
Q 1578 3097 1268 2742 
Q 959 2388 959 1747 
Q 959 1106 1268 751 
Q 1578 397 2138 397 
Q 2388 397 2633 464 
Q 2878 531 3122 666 
L 3122 134 
Q 2881 22 2623 -34 
Q 2366 -91 2075 -91 
Q 1284 -91 818 406 
Q 353 903 353 1747 
Q 353 2603 823 3093 
Q 1294 3584 2113 3584 
Q 2378 3584 2631 3529 
Q 2884 3475 3122 3366 
z
" transform="scale(0.015625)"/>
      </defs>
      <use xlink:href="#DejaVuSans-53"/>
      <use xlink:href="#DejaVuSans-63" x="63.476562"/>
      <use xlink:href="#DejaVuSans-6f" x="118.457031"/>
      <use xlink:href="#DejaVuSans-72" x="179.638672"/>
      <use xlink:href="#DejaVuSans-65" x="218.501953"/>
     </g>
    </g>
   </g>
   <g id="line2d_9">
    <path d="M 121.3045 265.523145 
L 209.8425 265.523145 
" clip-path="url(#peb44600587)" style="fill: none; stroke: #4d4d4d; stroke-linecap: square"/>
   </g>
   <g id="line2d_10">
    <path d="M 342.6495 199.676305 
L 431.1875 199.676305 
" clip-path="url(#peb44600587)" style="fill: none; stroke: #4d4d4d; stroke-linecap: square"/>
   </g>
   <g id="patch_5">
    <path d="M 99.17 419.08 
L 99.17 50.92 
" style="fill: none; stroke: #000000; stroke-width: 0.8; stroke-linejoin: miter; stroke-linecap: square"/>
   </g>
   <g id="patch_6">
    <path d="M 99.17 419.08 
L 541.86 419.08 
" style="fill: none; stroke: #000000; stroke-width: 0.8; stroke-linejoin: miter; stroke-linecap: square"/>
   </g>
   <g id="PathCollection_3">
    <defs>
     <path id="m65ee8820df" d="M 0 5 
C 1.326016 5 2.597899 4.473168 3.535534 3.535534 
C 4.473168 2.597899 5 1.326016 5 0 
C 5 -1.326016 4.473168 -2.597899 3.535534 -3.535534 
C 2.597899 -4.473168 1.326016 -5 0 -5 
C -1.326016 -5 -2.597899 -4.473168 -3.535534 -3.535534 
C -4.473168 -2.597899 -5 -1.326016 -5 0 
C -5 1.326016 -4.473168 2.597899 -3.535534 3.535534 
C -2.597899 4.473168 -1.326016 5 0 5 
z
" style="stroke: #000000; stroke-opacity: 0.7"/>
    </defs>
    <g clip-path="url(#peb44600587)">
     <use xlink:href="#m65ee8820df" x="165.5735" y="265.523145" style="fill: #6495ed; fill-opacity: 0.7; stroke: #000000; stroke-opacity: 0.7"/>
    </g>
   </g>
   <g id="PathCollection_4">
    <defs>
     <path id="C0_0_a15a4c378a" d="M 0 5 
C 1.326016 5 2.597899 4.473168 3.535534 3.535534 
C 4.473168 2.597899 5 1.326016 5 -0 
C 5 -1.326016 4.473168 -2.597899 3.535534 -3.535534 
C 2.597899 -4.473168 1.326016 -5 0 -5 
C -1.326016 -5 -2.597899 -4.473168 -3.535534 -3.535534 
C -4.473168 -2.597899 -5 -1.326016 -5 0 
C -5 1.326016 -4.473168 2.597899 -3.535534 3.535534 
C -2.597899 4.473168 -1.326016 5 0 5 
z
"/>
    </defs>
    <g clip-path="url(#peb44600587)">
     <use xlink:href="#C0_0_a15a4c378a" x="253.575139" y="173.814699" style="fill: #708090; fill-opacity: 0.7; stroke: #000000; stroke-opacity: 0.7"/>
    </g>
    <g clip-path="url(#peb44600587)">
     <use xlink:href="#C0_0_a15a4c378a" x="248.906277" y="151.270827" style="fill: #708090; fill-opacity: 0.7; stroke: #000000; stroke-opacity: 0.7"/>
    </g>
    <g clip-path="url(#peb44600587)">
     <use xlink:href="#C0_0_a15a4c378a" x="245.676093" y="268.660926" style="fill: #708090; fill-opacity: 0.7; stroke: #000000; stroke-opacity: 0.7"/>
    </g>
    <g clip-path="url(#peb44600587)">
     <use xlink:href="#C0_0_a15a4c378a" x="253.361293" y="150.178407" style="fill: #708090; fill-opacity: 0.7; stroke: #000000; stroke-opacity: 0.7"/>
    </g>
    <g clip-path="url(#peb44600587)">
     <use xlink:href="#C0_0_a15a4c378a" x="248.751208" y="215.952654" style="fill: #708090; fill-opacity: 0.7; stroke: #000000; stroke-opacity: 0.7"/>
    </g>
    <g clip-path="url(#peb44600587)">
     <use xlink:href="#C0_0_a15a4c378a" x="243.907735" y="326.316165" style="fill: #708090; fill-opacity: 0.7; stroke: #000000; stroke-opacity: 0.7"/>
    </g>
    <g clip-path="url(#peb44600587)">
     <use xlink:href="#C0_0_a15a4c378a" x="249.318906" y="377.761669" style="fill: #708090; fill-opacity: 0.7; stroke: #000000; stroke-opacity: 0.7"/>
    </g>
    <g clip-path="url(#peb44600587)">
     <use xlink:href="#C0_0_a15a4c378a" x="256.542748" y="200.360901" style="fill: #708090; fill-opacity: 0.7; stroke: #000000; stroke-opacity: 0.7"/>
    </g>
    <g clip-path="url(#peb44600587)">
     <use xlink:href="#C0_0_a15a4c378a" x="257.463148" y="229.890963" style="fill: #708090; fill-opacity: 0.7; stroke: #000000; stroke-opacity: 0.7"/>
    </g>
    <g clip-path="url(#peb44600587)">
     <use xlink:href="#C0_0_a15a4c378a" x="253.464683" y="168.076612" style="fill: #708090; fill-opacity: 0.7; stroke: #000000; stroke-opacity: 0.7"/>
    </g>
   </g>
   <g id="PathCollection_5">
    <g clip-path="url(#peb44600587)">
     <use xlink:href="#m65ee8820df" x="386.9185" y="199.676305" style="fill: #6495ed; fill-opacity: 0.7; stroke: #000000; stroke-opacity: 0.7"/>
    </g>
   </g>
   <g id="PathCollection_6">
    <defs>
     <path id="C1_0_502aeb1708" d="M 0 5 
C 1.326016 5 2.597899 4.473168 3.535534 3.535534 
C 4.473168 2.597899 5 1.326016 5 -0 
C 5 -1.326016 4.473168 -2.597899 3.535534 -3.535534 
C 2.597899 -4.473168 1.326016 -5 0 -5 
C -1.326016 -5 -2.597899 -4.473168 -3.535534 -3.535534 
C -4.473168 -2.597899 -5 -1.326016 -5 0 
C -5 1.326016 -4.473168 2.597899 -3.535534 3.535534 
C -2.597899 4.473168 -1.326016 5 0 5 
z
"/>
    </defs>
    <g clip-path="url(#peb44600587)">
     <use xlink:href="#C1_0_502aeb1708" x="465.20034" y="79.642235" style="fill: #708090; fill-opacity: 0.7; stroke: #000000; stroke-opacity: 0.7"/>
    </g>
    <g clip-path="url(#peb44600587)">
     <use xlink:href="#C1_0_502aeb1708" x="479.917631" y="79.155622" style="fill: #708090; fill-opacity: 0.7; stroke: #000000; stroke-opacity: 0.7"/>
    </g>
    <g clip-path="url(#peb44600587)">
     <use xlink:href="#C1_0_502aeb1708" x="479.877177" y="95.047155" style="fill: #708090; fill-opacity: 0.7; stroke: #000000; stroke-opacity: 0.7"/>
    </g>
    <g clip-path="url(#peb44600587)">
     <use xlink:href="#C1_0_502aeb1708" x="485.266247" y="63.857035" style="fill: #708090; fill-opacity: 0.7; stroke: #000000; stroke-opacity: 0.7"/>
    </g>
    <g clip-path="url(#peb44600587)">
     <use xlink:href="#C1_0_502aeb1708" x="477.729033" y="208.490257" style="fill: #708090; fill-opacity: 0.7; stroke: #000000; stroke-opacity: 0.7"/>
    </g>
    <g clip-path="url(#peb44600587)">
     <use xlink:href="#C1_0_502aeb1708" x="467.200394" y="74.116139" style="fill: #708090; fill-opacity: 0.7; stroke: #000000; stroke-opacity: 0.7"/>
    </g>
    <g clip-path="url(#peb44600587)">
     <use xlink:href="#C1_0_502aeb1708" x="479.388232" y="271.061713" style="fill: #708090; fill-opacity: 0.7; stroke: #000000; stroke-opacity: 0.7"/>
    </g>
    <g clip-path="url(#peb44600587)">
     <use xlink:href="#C1_0_502aeb1708" x="485.562874" y="91.527385" style="fill: #708090; fill-opacity: 0.7; stroke: #000000; stroke-opacity: 0.7"/>
    </g>
    <g clip-path="url(#peb44600587)">
     <use xlink:href="#C1_0_502aeb1708" x="478.510249" y="55.67561" style="fill: #708090; fill-opacity: 0.7; stroke: #000000; stroke-opacity: 0.7"/>
    </g>
    <g clip-path="url(#peb44600587)">
     <use xlink:href="#C1_0_502aeb1708" x="475.915745" y="63.073848" style="fill: #708090; fill-opacity: 0.7; stroke: #000000; stroke-opacity: 0.7"/>
    </g>
   </g>
   <g id="text_11">
    <!-- Fragment = nitrofuran -->
    <g transform="translate(186.143125 44.92)scale(0.24 -0.24)">
     <defs>
      <path id="DejaVuSans-46" d="M 628 4666 
L 3309 4666 
L 3309 4134 
L 1259 4134 
L 1259 2759 
L 3109 2759 
L 3109 2228 
L 1259 2228 
L 1259 0 
L 628 0 
L 628 4666 
z
" transform="scale(0.015625)"/>
      <path id="DejaVuSans-6d" d="M 3328 2828 
Q 3544 3216 3844 3400 
Q 4144 3584 4550 3584 
Q 5097 3584 5394 3201 
Q 5691 2819 5691 2113 
L 5691 0 
L 5113 0 
L 5113 2094 
Q 5113 2597 4934 2840 
Q 4756 3084 4391 3084 
Q 3944 3084 3684 2787 
Q 3425 2491 3425 1978 
L 3425 0 
L 2847 0 
L 2847 2094 
Q 2847 2600 2669 2842 
Q 2491 3084 2119 3084 
Q 1678 3084 1418 2786 
Q 1159 2488 1159 1978 
L 1159 0 
L 581 0 
L 581 3500 
L 1159 3500 
L 1159 2956 
Q 1356 3278 1631 3431 
Q 1906 3584 2284 3584 
Q 2666 3584 2933 3390 
Q 3200 3197 3328 2828 
z
" transform="scale(0.015625)"/>
      <path id="DejaVuSans-74" d="M 1172 4494 
L 1172 3500 
L 2356 3500 
L 2356 3053 
L 1172 3053 
L 1172 1153 
Q 1172 725 1289 603 
Q 1406 481 1766 481 
L 2356 481 
L 2356 0 
L 1766 0 
Q 1100 0 847 248 
Q 594 497 594 1153 
L 594 3053 
L 172 3053 
L 172 3500 
L 594 3500 
L 594 4494 
L 1172 4494 
z
" transform="scale(0.015625)"/>
      <path id="DejaVuSans-3d" d="M 678 2906 
L 4684 2906 
L 4684 2381 
L 678 2381 
L 678 2906 
z
M 678 1631 
L 4684 1631 
L 4684 1100 
L 678 1100 
L 678 1631 
z
" transform="scale(0.015625)"/>
      <path id="DejaVuSans-69" d="M 603 3500 
L 1178 3500 
L 1178 0 
L 603 0 
L 603 3500 
z
M 603 4863 
L 1178 4863 
L 1178 4134 
L 603 4134 
L 603 4863 
z
" transform="scale(0.015625)"/>
      <path id="DejaVuSans-66" d="M 2375 4863 
L 2375 4384 
L 1825 4384 
Q 1516 4384 1395 4259 
Q 1275 4134 1275 3809 
L 1275 3500 
L 2222 3500 
L 2222 3053 
L 1275 3053 
L 1275 0 
L 697 0 
L 697 3053 
L 147 3053 
L 147 3500 
L 697 3500 
L 697 3744 
Q 697 4328 969 4595 
Q 1241 4863 1831 4863 
L 2375 4863 
z
" transform="scale(0.015625)"/>
     </defs>
     <use xlink:href="#DejaVuSans-46"/>
     <use xlink:href="#DejaVuSans-72" x="50.269531"/>
     <use xlink:href="#DejaVuSans-61" x="91.382812"/>
     <use xlink:href="#DejaVuSans-67" x="152.662109"/>
     <use xlink:href="#DejaVuSans-6d" x="216.138672"/>
     <use xlink:href="#DejaVuSans-65" x="313.550781"/>
     <use xlink:href="#DejaVuSans-6e" x="375.074219"/>
     <use xlink:href="#DejaVuSans-74" x="438.453125"/>
     <use xlink:href="#DejaVuSans-20" x="477.662109"/>
     <use xlink:href="#DejaVuSans-3d" x="509.449219"/>
     <use xlink:href="#DejaVuSans-20" x="593.238281"/>
     <use xlink:href="#DejaVuSans-6e" x="625.025391"/>
     <use xlink:href="#DejaVuSans-69" x="688.404297"/>
     <use xlink:href="#DejaVuSans-74" x="716.1875"/>
     <use xlink:href="#DejaVuSans-72" x="755.396484"/>
     <use xlink:href="#DejaVuSans-6f" x="794.259766"/>
     <use xlink:href="#DejaVuSans-66" x="855.441406"/>
     <use xlink:href="#DejaVuSans-75" x="890.646484"/>
     <use xlink:href="#DejaVuSans-72" x="954.025391"/>
     <use xlink:href="#DejaVuSans-61" x="995.138672"/>
     <use xlink:href="#DejaVuSans-6e" x="1056.417969"/>
    </g>
   </g>
  </g>
  <g id="axes_2">
   <g id="patch_7">
    <path d="M 571.28 419.08 
L 1013.97 419.08 
L 1013.97 50.92 
L 571.28 50.92 
z
" style="fill: #ffffff"/>
   </g>
   <g id="patch_8">
    <path d="M 681.9525 419.08 
L 681.9525 419.08 
L 681.9525 419.08 
L 681.9525 419.08 
z
" clip-path="url(#p5ef16ecb89)" style="fill: #7f9dd2; stroke: #4d4d4d; stroke-width: 0.5; stroke-linejoin: miter"/>
   </g>
   <g id="patch_9">
    <path d="M 681.9525 419.08 
L 681.9525 419.08 
L 681.9525 419.08 
L 681.9525 419.08 
z
" clip-path="url(#p5ef16ecb89)" style="fill: #76808a; stroke: #4d4d4d; stroke-width: 0.5; stroke-linejoin: miter"/>
   </g>
   <g id="PolyCollection_3">
    <defs>
     <path id="me6fb0991b8" d="M 726.756112 -149.472039 
L 725.686888 -149.472039 
L 725.54642 -152.353392 
L 725.381284 -155.234744 
L 725.190768 -158.116096 
L 724.97521 -160.997449 
L 724.736208 -163.878801 
L 724.476789 -166.760153 
L 724.201486 -169.641506 
L 723.916321 -172.522858 
L 723.628669 -175.404211 
L 723.34699 -178.285563 
L 723.080456 -181.166915 
L 722.838472 -184.048268 
L 722.630126 -186.92962 
L 722.463628 -189.810973 
L 722.345762 -192.692325 
L 722.28141 -195.573677 
L 722.273195 -198.45503 
L 722.321263 -201.336382 
L 722.423239 -204.217734 
L 722.574335 -207.099087 
L 722.767609 -209.980439 
L 722.99434 -212.861792 
L 723.244472 -215.743144 
L 723.507068 -218.624496 
L 723.770749 -221.505849 
L 724.024054 -224.387201 
L 724.255696 -227.268553 
L 724.454708 -230.149906 
L 724.610474 -233.031258 
L 724.712663 -235.912611 
L 724.75111 -238.793963 
L 724.715676 -241.675315 
L 724.596155 -244.556668 
L 724.382253 -247.43802 
L 724.063704 -250.319372 
L 723.630524 -253.200725 
L 723.073436 -256.082077 
L 722.384431 -258.96343 
L 721.557429 -261.844782 
L 720.588989 -264.726134 
L 719.478977 -267.607487 
L 718.231107 -270.488839 
L 716.853277 -273.370191 
L 715.35761 -276.251544 
L 713.76016 -279.132896 
L 712.080271 -282.014249 
L 710.339605 -284.895601 
L 708.560913 -287.776953 
L 706.766668 -290.658306 
L 704.97768 -293.539658 
L 703.211868 -296.42101 
L 701.483319 -299.302363 
L 699.801771 -302.183715 
L 698.172585 -305.065068 
L 696.597242 -307.94642 
L 695.074315 -310.827772 
L 693.600818 -313.709125 
L 692.173772 -316.590477 
L 690.791819 -319.471829 
L 689.456677 -322.353182 
L 688.174269 -325.234534 
L 686.955386 -328.115887 
L 685.81581 -330.997239 
L 684.775873 -333.878591 
L 683.859511 -336.759944 
L 683.0929 -339.641296 
L 682.502847 -342.522648 
L 682.115062 -345.404001 
L 681.9525 -348.285353 
L 682.033898 -351.166706 
L 682.372607 -354.048058 
L 682.975791 -356.92941 
L 683.844005 -359.810763 
L 684.971128 -362.692115 
L 686.344618 -365.573467 
L 687.946023 -368.45482 
L 689.751678 -371.336172 
L 691.733543 -374.217525 
L 693.86012 -377.098877 
L 696.097426 -379.980229 
L 698.40999 -382.861582 
L 700.761859 -385.742934 
L 703.117595 -388.624286 
L 705.443242 -391.505639 
L 707.70724 -394.386991 
L 709.881245 -397.268344 
L 711.940839 -400.149696 
L 713.866072 -403.031048 
L 715.641815 -405.912401 
L 717.257915 -408.793753 
L 718.709118 -411.675106 
L 719.994799 -414.556458 
L 721.1185 -417.43781 
L 722.08733 -420.319163 
L 722.911254 -423.200515 
L 723.602349 -426.081867 
L 724.174046 -428.96322 
L 724.64043 -431.844572 
L 725.015611 -434.725925 
L 727.427389 -434.725925 
L 727.427389 -434.725925 
L 727.80257 -431.844572 
L 728.268954 -428.96322 
L 728.840651 -426.081867 
L 729.531746 -423.200515 
L 730.35567 -420.319163 
L 731.3245 -417.43781 
L 732.448201 -414.556458 
L 733.733882 -411.675106 
L 735.185085 -408.793753 
L 736.801185 -405.912401 
L 738.576928 -403.031048 
L 740.502161 -400.149696 
L 742.561755 -397.268344 
L 744.73576 -394.386991 
L 746.999758 -391.505639 
L 749.325405 -388.624286 
L 751.681141 -385.742934 
L 754.03301 -382.861582 
L 756.345574 -379.980229 
L 758.58288 -377.098877 
L 760.709457 -374.217525 
L 762.691322 -371.336172 
L 764.496977 -368.45482 
L 766.098382 -365.573467 
L 767.471872 -362.692115 
L 768.598995 -359.810763 
L 769.467209 -356.92941 
L 770.070393 -354.048058 
L 770.409102 -351.166706 
L 770.4905 -348.285353 
L 770.327938 -345.404001 
L 769.940153 -342.522648 
L 769.3501 -339.641296 
L 768.583489 -336.759944 
L 767.667127 -333.878591 
L 766.62719 -330.997239 
L 765.487614 -328.115887 
L 764.268731 -325.234534 
L 762.986323 -322.353182 
L 761.651181 -319.471829 
L 760.269228 -316.590477 
L 758.842182 -313.709125 
L 757.368685 -310.827772 
L 755.845758 -307.94642 
L 754.270415 -305.065068 
L 752.641229 -302.183715 
L 750.959681 -299.302363 
L 749.231132 -296.42101 
L 747.46532 -293.539658 
L 745.676332 -290.658306 
L 743.882087 -287.776953 
L 742.103395 -284.895601 
L 740.362729 -282.014249 
L 738.68284 -279.132896 
L 737.08539 -276.251544 
L 735.589723 -273.370191 
L 734.211893 -270.488839 
L 732.964023 -267.607487 
L 731.854011 -264.726134 
L 730.885571 -261.844782 
L 730.058569 -258.96343 
L 729.369564 -256.082077 
L 728.812476 -253.200725 
L 728.379296 -250.319372 
L 728.060747 -247.43802 
L 727.846845 -244.556668 
L 727.727324 -241.675315 
L 727.69189 -238.793963 
L 727.730337 -235.912611 
L 727.832526 -233.031258 
L 727.988292 -230.149906 
L 728.187304 -227.268553 
L 728.418946 -224.387201 
L 728.672251 -221.505849 
L 728.935932 -218.624496 
L 729.198528 -215.743144 
L 729.44866 -212.861792 
L 729.675391 -209.980439 
L 729.868665 -207.099087 
L 730.019761 -204.217734 
L 730.121737 -201.336382 
L 730.169805 -198.45503 
L 730.16159 -195.573677 
L 730.097238 -192.692325 
L 729.979372 -189.810973 
L 729.812874 -186.92962 
L 729.604528 -184.048268 
L 729.362544 -181.166915 
L 729.09601 -178.285563 
L 728.814331 -175.404211 
L 728.526679 -172.522858 
L 728.241514 -169.641506 
L 727.966211 -166.760153 
L 727.706792 -163.878801 
L 727.46779 -160.997449 
L 727.252232 -158.116096 
L 727.061716 -155.234744 
L 726.89658 -152.353392 
L 726.756112 -149.472039 
z
" style="stroke: #4d4d4d; stroke-opacity: 0.7"/>
    </defs>
    <g clip-path="url(#p5ef16ecb89)">
     <use xlink:href="#me6fb0991b8" x="0" y="504" style="fill: #76808a; fill-opacity: 0.7; stroke: #4d4d4d; stroke-opacity: 0.7"/>
    </g>
   </g>
   <g id="PolyCollection_4">
    <defs>
     <path id="m7f2084b83d" d="M 948.044883 -390.922778 
L 947.088117 -390.922778 
L 946.968929 -391.639448 
L 946.82823 -392.356117 
L 946.664336 -393.072787 
L 946.475972 -393.789457 
L 946.262408 -394.506127 
L 946.023597 -395.222796 
L 945.760284 -395.939466 
L 945.474102 -396.656136 
L 945.167635 -397.372806 
L 944.844432 -398.089476 
L 944.508986 -398.806145 
L 944.166657 -399.522815 
L 943.823548 -400.239485 
L 943.486338 -400.956155 
L 943.162073 -401.672824 
L 942.85793 -402.389494 
L 942.580961 -403.106164 
L 942.33783 -403.822834 
L 942.134557 -404.539503 
L 941.976283 -405.256173 
L 941.867058 -405.972843 
L 941.809674 -406.689513 
L 941.805541 -407.406182 
L 941.854613 -408.122852 
L 941.955367 -408.839522 
L 942.104834 -409.556192 
L 942.298674 -410.272862 
L 942.531295 -410.989531 
L 942.796002 -411.706201 
L 943.08517 -412.422871 
L 943.390424 -413.139541 
L 943.702813 -413.85621 
L 944.012981 -414.57288 
L 944.311299 -415.28955 
L 944.587974 -416.00622 
L 944.833121 -416.722889 
L 945.0368 -417.439559 
L 945.189021 -418.156229 
L 945.279732 -418.872899 
L 945.298809 -419.589569 
L 945.23604 -420.306238 
L 945.081158 -421.022908 
L 944.823906 -421.739578 
L 944.454167 -422.456248 
L 943.962159 -423.172917 
L 943.338705 -423.889587 
L 942.575554 -424.606257 
L 941.665772 -425.322927 
L 940.604146 -426.039596 
L 939.387607 -426.756266 
L 938.015631 -427.472936 
L 936.490589 -428.189606 
L 934.818029 -428.906275 
L 933.006874 -429.622945 
L 931.069515 -430.339615 
L 929.021797 -431.056285 
L 926.882922 -431.772955 
L 924.675245 -432.489624 
L 922.42401 -433.206294 
L 920.15702 -433.922964 
L 917.904255 -434.639634 
L 915.697461 -435.356303 
L 913.569679 -436.072973 
L 911.554743 -436.789643 
L 909.686705 -437.506313 
L 907.9992 -438.222982 
L 906.524719 -438.939652 
L 905.293803 -439.656322 
L 904.334156 -440.372992 
L 903.669705 -441.089662 
L 903.319642 -441.806331 
L 903.2975 -442.523001 
L 903.610324 -443.239671 
L 904.258009 -443.956341 
L 905.232876 -444.67301 
L 906.519526 -445.38968 
L 908.095035 -446.10635 
L 909.929498 -446.82302 
L 911.98691 -447.539689 
L 914.226359 -448.256359 
L 916.603464 -448.973029 
L 919.071979 -449.689699 
L 921.58547 -450.406368 
L 924.098956 -451.123038 
L 926.570436 -451.839708 
L 928.962192 -452.556378 
L 931.241826 -453.273048 
L 933.382969 -453.989717 
L 935.365656 -454.706387 
L 937.17637 -455.423057 
L 938.807781 -456.139727 
L 940.258235 -456.856396 
L 941.531042 -457.573066 
L 942.633638 -458.289736 
L 943.576683 -459.006406 
L 944.373147 -459.723075 
L 945.037451 -460.439745 
L 945.584692 -461.156415 
L 946.029976 -461.873085 
L 949.103024 -461.873085 
L 949.103024 -461.873085 
L 949.548308 -461.156415 
L 950.095549 -460.439745 
L 950.759853 -459.723075 
L 951.556317 -459.006406 
L 952.499362 -458.289736 
L 953.601958 -457.573066 
L 954.874765 -456.856396 
L 956.325219 -456.139727 
L 957.95663 -455.423057 
L 959.767344 -454.706387 
L 961.750031 -453.989717 
L 963.891174 -453.273048 
L 966.170808 -452.556378 
L 968.562564 -451.839708 
L 971.034044 -451.123038 
L 973.54753 -450.406368 
L 976.061021 -449.689699 
L 978.529536 -448.973029 
L 980.906641 -448.256359 
L 983.14609 -447.539689 
L 985.203502 -446.82302 
L 987.037965 -446.10635 
L 988.613474 -445.38968 
L 989.900124 -444.67301 
L 990.874991 -443.956341 
L 991.522676 -443.239671 
L 991.8355 -442.523001 
L 991.813358 -441.806331 
L 991.463295 -441.089662 
L 990.798844 -440.372992 
L 989.839197 -439.656322 
L 988.608281 -438.939652 
L 987.1338 -438.222982 
L 985.446295 -437.506313 
L 983.578257 -436.789643 
L 981.563321 -436.072973 
L 979.435539 -435.356303 
L 977.228745 -434.639634 
L 974.97598 -433.922964 
L 972.70899 -433.206294 
L 970.457755 -432.489624 
L 968.250078 -431.772955 
L 966.111203 -431.056285 
L 964.063485 -430.339615 
L 962.126126 -429.622945 
L 960.314971 -428.906275 
L 958.642411 -428.189606 
L 957.117369 -427.472936 
L 955.745393 -426.756266 
L 954.528854 -426.039596 
L 953.467228 -425.322927 
L 952.557446 -424.606257 
L 951.794295 -423.889587 
L 951.170841 -423.172917 
L 950.678833 -422.456248 
L 950.309094 -421.739578 
L 950.051842 -421.022908 
L 949.89696 -420.306238 
L 949.834191 -419.589569 
L 949.853268 -418.872899 
L 949.943979 -418.156229 
L 950.0962 -417.439559 
L 950.299879 -416.722889 
L 950.545026 -416.00622 
L 950.821701 -415.28955 
L 951.120019 -414.57288 
L 951.430187 -413.85621 
L 951.742576 -413.139541 
L 952.04783 -412.422871 
L 952.336998 -411.706201 
L 952.601705 -410.989531 
L 952.834326 -410.272862 
L 953.028166 -409.556192 
L 953.177633 -408.839522 
L 953.278387 -408.122852 
L 953.327459 -407.406182 
L 953.323326 -406.689513 
L 953.265942 -405.972843 
L 953.156717 -405.256173 
L 952.998443 -404.539503 
L 952.79517 -403.822834 
L 952.552039 -403.106164 
L 952.27507 -402.389494 
L 951.970927 -401.672824 
L 951.646662 -400.956155 
L 951.309452 -400.239485 
L 950.966343 -399.522815 
L 950.624014 -398.806145 
L 950.288568 -398.089476 
L 949.965365 -397.372806 
L 949.658898 -396.656136 
L 949.372716 -395.939466 
L 949.109403 -395.222796 
L 948.870592 -394.506127 
L 948.657028 -393.789457 
L 948.468664 -393.072787 
L 948.30477 -392.356117 
L 948.164071 -391.639448 
L 948.044883 -390.922778 
z
" style="stroke: #4d4d4d; stroke-opacity: 0.7"/>
    </defs>
    <g clip-path="url(#p5ef16ecb89)">
     <use xlink:href="#m7f2084b83d" x="0" y="504" style="fill: #76808a; fill-opacity: 0.7; stroke: #4d4d4d; stroke-opacity: 0.7"/>
    </g>
   </g>
   <g id="PathCollection_7"/>
   <g id="PathCollection_8"/>
   <g id="matplotlib.axis_3">
    <g id="xtick_3">
     <g id="line2d_11">
      <g>
       <use xlink:href="#m21eb6b9991" x="681.9525" y="419.08" style="stroke: #000000; stroke-width: 0.8"/>
      </g>
     </g>
     <g id="text_12">
      <!-- S. aureus -->
      <g transform="translate(625.845 444.31625)scale(0.24 -0.24)">
       <use xlink:href="#DejaVuSans-53"/>
       <use xlink:href="#DejaVuSans-2e" x="63.476562"/>
       <use xlink:href="#DejaVuSans-20" x="95.263672"/>
       <use xlink:href="#DejaVuSans-61" x="127.050781"/>
       <use xlink:href="#DejaVuSans-75" x="188.330078"/>
       <use xlink:href="#DejaVuSans-72" x="251.708984"/>
       <use xlink:href="#DejaVuSans-65" x="290.572266"/>
       <use xlink:href="#DejaVuSans-75" x="352.095703"/>
       <use xlink:href="#DejaVuSans-73" x="415.474609"/>
      </g>
     </g>
    </g>
    <g id="xtick_4">
     <g id="line2d_12">
      <g>
       <use xlink:href="#m21eb6b9991" x="903.2975" y="419.08" style="stroke: #000000; stroke-width: 0.8"/>
      </g>
     </g>
     <g id="text_13">
      <!-- N. gonorrhoeae -->
      <g transform="translate(810.269375 444.31625)scale(0.24 -0.24)">
       <use xlink:href="#DejaVuSans-4e"/>
       <use xlink:href="#DejaVuSans-2e" x="74.804688"/>
       <use xlink:href="#DejaVuSans-20" x="106.591797"/>
       <use xlink:href="#DejaVuSans-67" x="138.378906"/>
       <use xlink:href="#DejaVuSans-6f" x="201.855469"/>
       <use xlink:href="#DejaVuSans-6e" x="263.037109"/>
       <use xlink:href="#DejaVuSans-6f" x="326.416016"/>
       <use xlink:href="#DejaVuSans-72" x="387.597656"/>
       <use xlink:href="#DejaVuSans-72" x="426.960938"/>
       <use xlink:href="#DejaVuSans-68" x="466.324219"/>
       <use xlink:href="#DejaVuSans-6f" x="529.703125"/>
       <use xlink:href="#DejaVuSans-65" x="590.884766"/>
       <use xlink:href="#DejaVuSans-61" x="652.408203"/>
       <use xlink:href="#DejaVuSans-65" x="713.6875"/>
      </g>
     </g>
    </g>
    <g id="text_14">
     <!-- Model -->
     <g transform="translate(756.593125 471.54375)scale(0.24 -0.24)">
      <use xlink:href="#DejaVuSans-4d"/>
      <use xlink:href="#DejaVuSans-6f" x="86.279297"/>
      <use xlink:href="#DejaVuSans-64" x="147.460938"/>
      <use xlink:href="#DejaVuSans-65" x="210.9375"/>
      <use xlink:href="#DejaVuSans-6c" x="272.460938"/>
     </g>
    </g>
   </g>
   <g id="matplotlib.axis_4">
    <g id="ytick_7">
     <g id="line2d_13">
      <g>
       <use xlink:href="#m8230b754d6" x="571.28" y="419.08" style="stroke: #000000; stroke-width: 0.8"/>
      </g>
     </g>
    </g>
    <g id="ytick_8">
     <g id="line2d_14">
      <g>
       <use xlink:href="#m8230b754d6" x="571.28" y="345.448" style="stroke: #000000; stroke-width: 0.8"/>
      </g>
     </g>
    </g>
    <g id="ytick_9">
     <g id="line2d_15">
      <g>
       <use xlink:href="#m8230b754d6" x="571.28" y="271.816" style="stroke: #000000; stroke-width: 0.8"/>
      </g>
     </g>
    </g>
    <g id="ytick_10">
     <g id="line2d_16">
      <g>
       <use xlink:href="#m8230b754d6" x="571.28" y="198.184" style="stroke: #000000; stroke-width: 0.8"/>
      </g>
     </g>
    </g>
    <g id="ytick_11">
     <g id="line2d_17">
      <g>
       <use xlink:href="#m8230b754d6" x="571.28" y="124.552" style="stroke: #000000; stroke-width: 0.8"/>
      </g>
     </g>
    </g>
    <g id="ytick_12">
     <g id="line2d_18">
      <g>
       <use xlink:href="#m8230b754d6" x="571.28" y="50.92" style="stroke: #000000; stroke-width: 0.8"/>
      </g>
     </g>
    </g>
   </g>
   <g id="line2d_19">
    <path d="M 593.4145 399.984758 
L 681.9525 399.984758 
" clip-path="url(#p5ef16ecb89)" style="fill: none; stroke: #4d4d4d; stroke-linecap: square"/>
   </g>
   <g id="line2d_20">
    <path d="M 814.7595 260.615674 
L 903.2975 260.615674 
" clip-path="url(#p5ef16ecb89)" style="fill: none; stroke: #4d4d4d; stroke-linecap: square"/>
   </g>
   <g id="patch_10">
    <path d="M 571.28 419.08 
L 571.28 50.92 
" style="fill: none; stroke: #000000; stroke-width: 0.8; stroke-linejoin: miter; stroke-linecap: square"/>
   </g>
   <g id="patch_11">
    <path d="M 571.28 419.08 
L 1013.97 419.08 
" style="fill: none; stroke: #000000; stroke-width: 0.8; stroke-linejoin: miter; stroke-linecap: square"/>
   </g>
   <g id="PathCollection_9">
    <g clip-path="url(#p5ef16ecb89)">
     <use xlink:href="#m65ee8820df" x="637.6835" y="399.984758" style="fill: #6495ed; fill-opacity: 0.7; stroke: #000000; stroke-opacity: 0.7"/>
    </g>
   </g>
   <g id="PathCollection_10">
    <defs>
     <path id="C2_0_c40fe4022b" d="M 0 5 
C 1.326016 5 2.597899 4.473168 3.535534 3.535534 
C 4.473168 2.597899 5 1.326016 5 -0 
C 5 -1.326016 4.473168 -2.597899 3.535534 -3.535534 
C 2.597899 -4.473168 1.326016 -5 0 -5 
C -1.326016 -5 -2.597899 -4.473168 -3.535534 -3.535534 
C -4.473168 -2.597899 -5 -1.326016 -5 0 
C -5 1.326016 -4.473168 2.597899 -3.535534 3.535534 
C -2.597899 4.473168 -1.326016 5 0 5 
z
"/>
    </defs>
    <g clip-path="url(#p5ef16ecb89)">
     <use xlink:href="#C2_0_c40fe4022b" x="719.543666" y="157.637747" style="fill: #708090; fill-opacity: 0.7; stroke: #000000; stroke-opacity: 0.7"/>
    </g>
    <g clip-path="url(#p5ef16ecb89)">
     <use xlink:href="#C2_0_c40fe4022b" x="727.806892" y="173.466587" style="fill: #708090; fill-opacity: 0.7; stroke: #000000; stroke-opacity: 0.7"/>
    </g>
    <g clip-path="url(#p5ef16ecb89)">
     <use xlink:href="#C2_0_c40fe4022b" x="725.313649" y="124.699398" style="fill: #708090; fill-opacity: 0.7; stroke: #000000; stroke-opacity: 0.7"/>
    </g>
    <g clip-path="url(#p5ef16ecb89)">
     <use xlink:href="#C2_0_c40fe4022b" x="719.909097" y="160.179145" style="fill: #708090; fill-opacity: 0.7; stroke: #000000; stroke-opacity: 0.7"/>
    </g>
    <g clip-path="url(#p5ef16ecb89)">
     <use xlink:href="#C2_0_c40fe4022b" x="730.112515" y="166.798277" style="fill: #708090; fill-opacity: 0.7; stroke: #000000; stroke-opacity: 0.7"/>
    </g>
    <g clip-path="url(#p5ef16ecb89)">
     <use xlink:href="#C2_0_c40fe4022b" x="725.068822" y="158.946531" style="fill: #708090; fill-opacity: 0.7; stroke: #000000; stroke-opacity: 0.7"/>
    </g>
    <g clip-path="url(#p5ef16ecb89)">
     <use xlink:href="#C2_0_c40fe4022b" x="724.483033" y="195.856102" style="fill: #708090; fill-opacity: 0.7; stroke: #000000; stroke-opacity: 0.7"/>
    </g>
    <g clip-path="url(#p5ef16ecb89)">
     <use xlink:href="#C2_0_c40fe4022b" x="723.468893" y="207.335087" style="fill: #708090; fill-opacity: 0.7; stroke: #000000; stroke-opacity: 0.7"/>
    </g>
    <g clip-path="url(#p5ef16ecb89)">
     <use xlink:href="#C2_0_c40fe4022b" x="729.478042" y="117.192499" style="fill: #708090; fill-opacity: 0.7; stroke: #000000; stroke-opacity: 0.7"/>
    </g>
    <g clip-path="url(#p5ef16ecb89)">
     <use xlink:href="#C2_0_c40fe4022b" x="727.912308" y="133.89624" style="fill: #708090; fill-opacity: 0.7; stroke: #000000; stroke-opacity: 0.7"/>
    </g>
    <g clip-path="url(#p5ef16ecb89)">
     <use xlink:href="#C2_0_c40fe4022b" x="726.621959" y="146.013995" style="fill: #708090; fill-opacity: 0.7; stroke: #000000; stroke-opacity: 0.7"/>
    </g>
    <g clip-path="url(#p5ef16ecb89)">
     <use xlink:href="#C2_0_c40fe4022b" x="725.184227" y="204.783496" style="fill: #708090; fill-opacity: 0.7; stroke: #000000; stroke-opacity: 0.7"/>
    </g>
    <g clip-path="url(#p5ef16ecb89)">
     <use xlink:href="#C2_0_c40fe4022b" x="731.451292" y="201.70365" style="fill: #708090; fill-opacity: 0.7; stroke: #000000; stroke-opacity: 0.7"/>
    </g>
    <g clip-path="url(#p5ef16ecb89)">
     <use xlink:href="#C2_0_c40fe4022b" x="726.459528" y="161.45036" style="fill: #708090; fill-opacity: 0.7; stroke: #000000; stroke-opacity: 0.7"/>
    </g>
    <g clip-path="url(#p5ef16ecb89)">
     <use xlink:href="#C2_0_c40fe4022b" x="715.734961" y="188.264429" style="fill: #708090; fill-opacity: 0.7; stroke: #000000; stroke-opacity: 0.7"/>
    </g>
    <g clip-path="url(#p5ef16ecb89)">
     <use xlink:href="#C2_0_c40fe4022b" x="729.830564" y="127.874574" style="fill: #708090; fill-opacity: 0.7; stroke: #000000; stroke-opacity: 0.7"/>
    </g>
    <g clip-path="url(#p5ef16ecb89)">
     <use xlink:href="#C2_0_c40fe4022b" x="717.365197" y="144.752214" style="fill: #708090; fill-opacity: 0.7; stroke: #000000; stroke-opacity: 0.7"/>
    </g>
    <g clip-path="url(#p5ef16ecb89)">
     <use xlink:href="#C2_0_c40fe4022b" x="726.038239" y="143.838795" style="fill: #708090; fill-opacity: 0.7; stroke: #000000; stroke-opacity: 0.7"/>
    </g>
    <g clip-path="url(#p5ef16ecb89)">
     <use xlink:href="#C2_0_c40fe4022b" x="728.601864" y="306.609537" style="fill: #708090; fill-opacity: 0.7; stroke: #000000; stroke-opacity: 0.7"/>
    </g>
   </g>
   <g id="PathCollection_11">
    <g clip-path="url(#p5ef16ecb89)">
     <use xlink:href="#m65ee8820df" x="859.0285" y="260.615674" style="fill: #6495ed; fill-opacity: 0.7; stroke: #000000; stroke-opacity: 0.7"/>
    </g>
   </g>
   <g id="PathCollection_12">
    <defs>
     <path id="C3_0_e14dc7697b" d="M 0 5 
C 1.326016 5 2.597899 4.473168 3.535534 3.535534 
C 4.473168 2.597899 5 1.326016 5 -0 
C 5 -1.326016 4.473168 -2.597899 3.535534 -3.535534 
C 2.597899 -4.473168 1.326016 -5 0 -5 
C -1.326016 -5 -2.597899 -4.473168 -3.535534 -3.535534 
C -4.473168 -2.597899 -5 -1.326016 -5 0 
C -5 1.326016 -4.473168 2.597899 -3.535534 3.535534 
C -2.597899 4.473168 -1.326016 5 0 5 
z
"/>
    </defs>
    <g clip-path="url(#p5ef16ecb89)">
     <use xlink:href="#C3_0_e14dc7697b" x="939.067317" y="59.14027" style="fill: #708090; fill-opacity: 0.7; stroke: #000000; stroke-opacity: 0.7"/>
    </g>
    <g clip-path="url(#p5ef16ecb89)">
     <use xlink:href="#C3_0_e14dc7697b" x="942.235036" y="60.900176" style="fill: #708090; fill-opacity: 0.7; stroke: #000000; stroke-opacity: 0.7"/>
    </g>
    <g clip-path="url(#p5ef16ecb89)">
     <use xlink:href="#C3_0_e14dc7697b" x="936.982963" y="68.518381" style="fill: #708090; fill-opacity: 0.7; stroke: #000000; stroke-opacity: 0.7"/>
    </g>
    <g clip-path="url(#p5ef16ecb89)">
     <use xlink:href="#C3_0_e14dc7697b" x="946.909792" y="57.789623" style="fill: #708090; fill-opacity: 0.7; stroke: #000000; stroke-opacity: 0.7"/>
    </g>
    <g clip-path="url(#p5ef16ecb89)">
     <use xlink:href="#C3_0_e14dc7697b" x="947.744791" y="57.629367" style="fill: #708090; fill-opacity: 0.7; stroke: #000000; stroke-opacity: 0.7"/>
    </g>
    <g clip-path="url(#p5ef16ecb89)">
     <use xlink:href="#C3_0_e14dc7697b" x="948.019419" y="64.298868" style="fill: #708090; fill-opacity: 0.7; stroke: #000000; stroke-opacity: 0.7"/>
    </g>
    <g clip-path="url(#p5ef16ecb89)">
     <use xlink:href="#C3_0_e14dc7697b" x="947.955275" y="63.201121" style="fill: #708090; fill-opacity: 0.7; stroke: #000000; stroke-opacity: 0.7"/>
    </g>
    <g clip-path="url(#p5ef16ecb89)">
     <use xlink:href="#C3_0_e14dc7697b" x="942.374588" y="99.972633" style="fill: #708090; fill-opacity: 0.7; stroke: #000000; stroke-opacity: 0.7"/>
    </g>
    <g clip-path="url(#p5ef16ecb89)">
     <use xlink:href="#C3_0_e14dc7697b" x="949.449753" y="59.951848" style="fill: #708090; fill-opacity: 0.7; stroke: #000000; stroke-opacity: 0.7"/>
    </g>
    <g clip-path="url(#p5ef16ecb89)">
     <use xlink:href="#C3_0_e14dc7697b" x="949.47989" y="60.36467" style="fill: #708090; fill-opacity: 0.7; stroke: #000000; stroke-opacity: 0.7"/>
    </g>
    <g clip-path="url(#p5ef16ecb89)">
     <use xlink:href="#C3_0_e14dc7697b" x="953.367136" y="65.0261" style="fill: #708090; fill-opacity: 0.7; stroke: #000000; stroke-opacity: 0.7"/>
    </g>
    <g clip-path="url(#p5ef16ecb89)">
     <use xlink:href="#C3_0_e14dc7697b" x="954.185255" y="68.187959" style="fill: #708090; fill-opacity: 0.7; stroke: #000000; stroke-opacity: 0.7"/>
    </g>
    <g clip-path="url(#p5ef16ecb89)">
     <use xlink:href="#C3_0_e14dc7697b" x="952.631569" y="69.064928" style="fill: #708090; fill-opacity: 0.7; stroke: #000000; stroke-opacity: 0.7"/>
    </g>
    <g clip-path="url(#p5ef16ecb89)">
     <use xlink:href="#C3_0_e14dc7697b" x="943.093845" y="55.231504" style="fill: #708090; fill-opacity: 0.7; stroke: #000000; stroke-opacity: 0.7"/>
    </g>
    <g clip-path="url(#p5ef16ecb89)">
     <use xlink:href="#C3_0_e14dc7697b" x="944.247414" y="59.119803" style="fill: #708090; fill-opacity: 0.7; stroke: #000000; stroke-opacity: 0.7"/>
    </g>
    <g clip-path="url(#p5ef16ecb89)">
     <use xlink:href="#C3_0_e14dc7697b" x="955.178634" y="57.062693" style="fill: #708090; fill-opacity: 0.7; stroke: #000000; stroke-opacity: 0.7"/>
    </g>
    <g clip-path="url(#p5ef16ecb89)">
     <use xlink:href="#C3_0_e14dc7697b" x="941.464433" y="70.027388" style="fill: #708090; fill-opacity: 0.7; stroke: #000000; stroke-opacity: 0.7"/>
    </g>
    <g clip-path="url(#p5ef16ecb89)">
     <use xlink:href="#C3_0_e14dc7697b" x="954.401167" y="62.874985" style="fill: #708090; fill-opacity: 0.7; stroke: #000000; stroke-opacity: 0.7"/>
    </g>
    <g clip-path="url(#p5ef16ecb89)">
     <use xlink:href="#C3_0_e14dc7697b" x="950.346577" y="93.841345" style="fill: #708090; fill-opacity: 0.7; stroke: #000000; stroke-opacity: 0.7"/>
    </g>
   </g>
   <g id="text_15">
    <!-- Fragment = fluoroquinolone -->
    <g transform="translate(623.9425 44.92)scale(0.24 -0.24)">
     <defs>
      <path id="DejaVuSans-71" d="M 947 1747 
Q 947 1113 1208 752 
Q 1469 391 1925 391 
Q 2381 391 2643 752 
Q 2906 1113 2906 1747 
Q 2906 2381 2643 2742 
Q 2381 3103 1925 3103 
Q 1469 3103 1208 2742 
Q 947 2381 947 1747 
z
M 2906 525 
Q 2725 213 2448 61 
Q 2172 -91 1784 -91 
Q 1150 -91 751 415 
Q 353 922 353 1747 
Q 353 2572 751 3078 
Q 1150 3584 1784 3584 
Q 2172 3584 2448 3432 
Q 2725 3281 2906 2969 
L 2906 3500 
L 3481 3500 
L 3481 -1331 
L 2906 -1331 
L 2906 525 
z
" transform="scale(0.015625)"/>
     </defs>
     <use xlink:href="#DejaVuSans-46"/>
     <use xlink:href="#DejaVuSans-72" x="50.269531"/>
     <use xlink:href="#DejaVuSans-61" x="91.382812"/>
     <use xlink:href="#DejaVuSans-67" x="152.662109"/>
     <use xlink:href="#DejaVuSans-6d" x="216.138672"/>
     <use xlink:href="#DejaVuSans-65" x="313.550781"/>
     <use xlink:href="#DejaVuSans-6e" x="375.074219"/>
     <use xlink:href="#DejaVuSans-74" x="438.453125"/>
     <use xlink:href="#DejaVuSans-20" x="477.662109"/>
     <use xlink:href="#DejaVuSans-3d" x="509.449219"/>
     <use xlink:href="#DejaVuSans-20" x="593.238281"/>
     <use xlink:href="#DejaVuSans-66" x="625.025391"/>
     <use xlink:href="#DejaVuSans-6c" x="660.230469"/>
     <use xlink:href="#DejaVuSans-75" x="688.013672"/>
     <use xlink:href="#DejaVuSans-6f" x="751.392578"/>
     <use xlink:href="#DejaVuSans-72" x="812.574219"/>
     <use xlink:href="#DejaVuSans-6f" x="851.4375"/>
     <use xlink:href="#DejaVuSans-71" x="912.619141"/>
     <use xlink:href="#DejaVuSans-75" x="976.095703"/>
     <use xlink:href="#DejaVuSans-69" x="1039.474609"/>
     <use xlink:href="#DejaVuSans-6e" x="1067.257812"/>
     <use xlink:href="#DejaVuSans-6f" x="1130.636719"/>
     <use xlink:href="#DejaVuSans-6c" x="1191.818359"/>
     <use xlink:href="#DejaVuSans-6f" x="1219.601562"/>
     <use xlink:href="#DejaVuSans-6e" x="1280.783203"/>
     <use xlink:href="#DejaVuSans-65" x="1344.162109"/>
    </g>
   </g>
  </g>
  <g id="axes_3">
   <g id="patch_12">
    <path d="M 1043.39 419.08 
L 1486.08 419.08 
L 1486.08 50.92 
L 1043.39 50.92 
z
" style="fill: #ffffff"/>
   </g>
   <g id="patch_13">
    <path d="M 1154.0625 419.08 
L 1154.0625 419.08 
L 1154.0625 419.08 
L 1154.0625 419.08 
z
" clip-path="url(#p5d162a5804)" style="fill: #7f9dd2; stroke: #4d4d4d; stroke-width: 0.5; stroke-linejoin: miter"/>
   </g>
   <g id="patch_14">
    <path d="M 1154.0625 419.08 
L 1154.0625 419.08 
L 1154.0625 419.08 
L 1154.0625 419.08 
z
" clip-path="url(#p5d162a5804)" style="fill: #76808a; stroke: #4d4d4d; stroke-width: 0.5; stroke-linejoin: miter"/>
   </g>
   <g id="PolyCollection_5">
    <defs>
     <path id="ma5a2d96056" d="M 1200.724705 -8.148764 
L 1195.938295 -8.148764 
L 1195.402614 -12.069431 
L 1194.774629 -15.990098 
L 1194.045107 -19.910765 
L 1193.205362 -23.831432 
L 1192.247635 -27.752099 
L 1191.16549 -31.672766 
L 1189.954231 -35.593433 
L 1188.611324 -39.5141 
L 1187.136787 -43.434767 
L 1185.533542 -47.355434 
L 1183.807697 -51.276101 
L 1181.968751 -55.196768 
L 1180.029676 -59.117435 
L 1178.00689 -63.038102 
L 1175.920091 -66.958769 
L 1173.79195 -70.879435 
L 1171.647675 -74.800102 
L 1169.514439 -78.720769 
L 1167.42071 -82.641436 
L 1165.395479 -86.562103 
L 1163.467446 -90.48277 
L 1161.66417 -94.403437 
L 1160.011232 -98.324104 
L 1158.531444 -102.244771 
L 1157.244133 -106.165438 
L 1156.164537 -110.086105 
L 1155.303326 -114.006772 
L 1154.666281 -117.927439 
L 1154.254121 -121.848106 
L 1154.0625 -125.768773 
L 1154.082159 -129.68944 
L 1154.299226 -133.610107 
L 1154.695642 -137.530774 
L 1155.249711 -141.451441 
L 1155.936727 -145.372108 
L 1156.729678 -149.292775 
L 1157.6 -153.213442 
L 1158.518343 -157.134109 
L 1159.45536 -161.054776 
L 1160.38247 -164.975443 
L 1161.272606 -168.89611 
L 1162.100913 -172.816776 
L 1162.84539 -176.737443 
L 1163.487465 -180.65811 
L 1164.012484 -184.578777 
L 1164.410098 -188.499444 
L 1164.674546 -192.420111 
L 1164.804805 -196.340778 
L 1164.804613 -200.261445 
L 1164.682345 -204.182112 
L 1164.45075 -208.102779 
L 1164.126539 -212.023446 
L 1163.729845 -215.944113 
L 1163.283561 -219.86478 
L 1162.812583 -223.785447 
L 1162.342975 -227.706114 
L 1161.901109 -231.626781 
L 1161.512784 -235.547448 
L 1161.202389 -239.468115 
L 1160.992125 -243.388782 
L 1160.901327 -247.309449 
L 1160.945911 -251.230116 
L 1161.137962 -255.150783 
L 1161.485482 -259.07145 
L 1161.992298 -262.992117 
L 1162.658121 -266.912784 
L 1163.478758 -270.83345 
L 1164.446442 -274.754117 
L 1165.550269 -278.674784 
L 1166.776705 -282.595451 
L 1168.110152 -286.516118 
L 1169.533516 -290.436785 
L 1171.028787 -294.357452 
L 1172.577578 -298.278119 
L 1174.16162 -302.198786 
L 1175.763201 -306.119453 
L 1177.365531 -310.04012 
L 1178.95304 -313.960787 
L 1180.511591 -317.881454 
L 1182.028646 -321.802121 
L 1183.493344 -325.722788 
L 1184.896546 -329.643455 
L 1186.230819 -333.564122 
L 1187.490389 -337.484789 
L 1188.671063 -341.405456 
L 1189.770132 -345.326123 
L 1190.786246 -349.24679 
L 1191.719297 -353.167457 
L 1192.570277 -357.088124 
L 1193.341143 -361.008791 
L 1194.03468 -364.929458 
L 1194.654358 -368.850124 
L 1195.2042 -372.770791 
L 1195.688649 -376.691458 
L 1196.112445 -380.612125 
L 1196.480511 -384.532792 
L 1196.797836 -388.453459 
L 1197.069388 -392.374126 
L 1197.300024 -396.294793 
L 1199.362976 -396.294793 
L 1199.362976 -396.294793 
L 1199.593612 -392.374126 
L 1199.865164 -388.453459 
L 1200.182489 -384.532792 
L 1200.550555 -380.612125 
L 1200.974351 -376.691458 
L 1201.4588 -372.770791 
L 1202.008642 -368.850124 
L 1202.62832 -364.929458 
L 1203.321857 -361.008791 
L 1204.092723 -357.088124 
L 1204.943703 -353.167457 
L 1205.876754 -349.24679 
L 1206.892868 -345.326123 
L 1207.991937 -341.405456 
L 1209.172611 -337.484789 
L 1210.432181 -333.564122 
L 1211.766454 -329.643455 
L 1213.169656 -325.722788 
L 1214.634354 -321.802121 
L 1216.151409 -317.881454 
L 1217.70996 -313.960787 
L 1219.297469 -310.04012 
L 1220.899799 -306.119453 
L 1222.50138 -302.198786 
L 1224.085422 -298.278119 
L 1225.634213 -294.357452 
L 1227.129484 -290.436785 
L 1228.552848 -286.516118 
L 1229.886295 -282.595451 
L 1231.112731 -278.674784 
L 1232.216558 -274.754117 
L 1233.184242 -270.83345 
L 1234.004879 -266.912784 
L 1234.670702 -262.992117 
L 1235.177518 -259.07145 
L 1235.525038 -255.150783 
L 1235.717089 -251.230116 
L 1235.761673 -247.309449 
L 1235.670875 -243.388782 
L 1235.460611 -239.468115 
L 1235.150216 -235.547448 
L 1234.761891 -231.626781 
L 1234.320025 -227.706114 
L 1233.850417 -223.785447 
L 1233.379439 -219.86478 
L 1232.933155 -215.944113 
L 1232.536461 -212.023446 
L 1232.21225 -208.102779 
L 1231.980655 -204.182112 
L 1231.858387 -200.261445 
L 1231.858195 -196.340778 
L 1231.988454 -192.420111 
L 1232.252902 -188.499444 
L 1232.650516 -184.578777 
L 1233.175535 -180.65811 
L 1233.81761 -176.737443 
L 1234.562087 -172.816776 
L 1235.390394 -168.89611 
L 1236.28053 -164.975443 
L 1237.20764 -161.054776 
L 1238.144657 -157.134109 
L 1239.063 -153.213442 
L 1239.933322 -149.292775 
L 1240.726273 -145.372108 
L 1241.413289 -141.451441 
L 1241.967358 -137.530774 
L 1242.363774 -133.610107 
L 1242.580841 -129.68944 
L 1242.6005 -125.768773 
L 1242.408879 -121.848106 
L 1241.996719 -117.927439 
L 1241.359674 -114.006772 
L 1240.498463 -110.086105 
L 1239.418867 -106.165438 
L 1238.131556 -102.244771 
L 1236.651768 -98.324104 
L 1234.99883 -94.403437 
L 1233.195554 -90.48277 
L 1231.267521 -86.562103 
L 1229.24229 -82.641436 
L 1227.148561 -78.720769 
L 1225.015325 -74.800102 
L 1222.87105 -70.879435 
L 1220.742909 -66.958769 
L 1218.65611 -63.038102 
L 1216.633324 -59.117435 
L 1214.694249 -55.196768 
L 1212.855303 -51.276101 
L 1211.129458 -47.355434 
L 1209.526213 -43.434767 
L 1208.051676 -39.5141 
L 1206.708769 -35.593433 
L 1205.49751 -31.672766 
L 1204.415365 -27.752099 
L 1203.457638 -23.831432 
L 1202.617893 -19.910765 
L 1201.888371 -15.990098 
L 1201.260386 -12.069431 
L 1200.724705 -8.148764 
z
" style="stroke: #4d4d4d; stroke-opacity: 0.7"/>
    </defs>
    <g clip-path="url(#p5d162a5804)">
     <use xlink:href="#ma5a2d96056" x="0" y="504" style="fill: #76808a; fill-opacity: 0.7; stroke: #4d4d4d; stroke-opacity: 0.7"/>
    </g>
   </g>
   <g id="PolyCollection_6">
    <defs>
     <path id="md00c456fd1" d="M 1421.425286 -49.930096 
L 1417.927714 -49.930096 
L 1417.508243 -52.991263 
L 1417.011509 -56.052429 
L 1416.429146 -59.113596 
L 1415.753187 -62.174763 
L 1414.97639 -65.235929 
L 1414.092572 -68.297096 
L 1413.09696 -71.358263 
L 1411.986523 -74.419429 
L 1410.760281 -77.480596 
L 1409.419562 -80.541763 
L 1407.968195 -83.602929 
L 1406.412619 -86.664096 
L 1404.761901 -89.725263 
L 1403.027652 -92.786429 
L 1401.223831 -95.847596 
L 1399.366458 -98.908763 
L 1397.473231 -101.969929 
L 1395.563064 -105.031096 
L 1393.655578 -108.092263 
L 1391.770548 -111.153429 
L 1389.927362 -114.214596 
L 1388.144495 -117.275763 
L 1386.439034 -120.336929 
L 1384.826285 -123.398096 
L 1383.319476 -126.459263 
L 1381.929563 -129.520429 
L 1380.665164 -132.581596 
L 1379.532601 -135.642763 
L 1378.536058 -138.703929 
L 1377.677821 -141.765096 
L 1376.9586 -144.826263 
L 1376.377886 -147.887429 
L 1375.934324 -150.948596 
L 1375.626073 -154.009763 
L 1375.451114 -157.070929 
L 1375.4075 -160.132096 
L 1375.493508 -163.193263 
L 1375.707701 -166.254429 
L 1376.048888 -169.315596 
L 1376.515986 -172.376763 
L 1377.107807 -175.437929 
L 1377.822776 -178.499096 
L 1378.65862 -181.560263 
L 1379.612038 -184.621429 
L 1380.678396 -187.682596 
L 1381.851459 -190.743763 
L 1383.123191 -193.804929 
L 1384.48364 -196.866096 
L 1385.920911 -199.927263 
L 1387.421242 -202.988429 
L 1388.969185 -206.049596 
L 1390.547872 -209.110763 
L 1392.139367 -212.171929 
L 1393.725095 -215.233096 
L 1395.286316 -218.294263 
L 1396.804634 -221.355429 
L 1398.26253 -224.416596 
L 1399.643875 -227.477763 
L 1400.934439 -230.538929 
L 1402.122333 -233.600096 
L 1403.198408 -236.661263 
L 1404.156559 -239.722429 
L 1404.993941 -242.783596 
L 1405.711072 -245.844763 
L 1406.311818 -248.905929 
L 1406.803254 -251.967096 
L 1407.1954 -255.028263 
L 1407.500837 -258.089429 
L 1407.734223 -261.150596 
L 1407.91171 -264.211763 
L 1408.050309 -267.272929 
L 1408.16721 -270.334096 
L 1408.279108 -273.395263 
L 1408.401552 -276.456429 
L 1408.548361 -279.517596 
L 1408.731129 -282.578763 
L 1408.958855 -285.639929 
L 1409.237692 -288.701096 
L 1409.570857 -291.762263 
L 1409.958667 -294.823429 
L 1410.398729 -297.884596 
L 1410.88623 -300.945763 
L 1411.414337 -304.006929 
L 1411.974665 -307.068096 
L 1412.557771 -310.129263 
L 1413.153675 -313.190429 
L 1413.752346 -316.251596 
L 1414.344145 -319.312763 
L 1414.920212 -322.373929 
L 1415.472757 -325.435096 
L 1415.995279 -328.496263 
L 1416.482688 -331.557429 
L 1416.931349 -334.618596 
L 1417.339039 -337.679763 
L 1417.704862 -340.740929 
L 1418.029092 -343.802096 
L 1418.313004 -346.863263 
L 1418.558673 -349.924429 
L 1418.768777 -352.985596 
L 1420.584223 -352.985596 
L 1420.584223 -352.985596 
L 1420.794327 -349.924429 
L 1421.039996 -346.863263 
L 1421.323908 -343.802096 
L 1421.648138 -340.740929 
L 1422.013961 -337.679763 
L 1422.421651 -334.618596 
L 1422.870312 -331.557429 
L 1423.357721 -328.496263 
L 1423.880243 -325.435096 
L 1424.432788 -322.373929 
L 1425.008855 -319.312763 
L 1425.600654 -316.251596 
L 1426.199325 -313.190429 
L 1426.795229 -310.129263 
L 1427.378335 -307.068096 
L 1427.938663 -304.006929 
L 1428.46677 -300.945763 
L 1428.954271 -297.884596 
L 1429.394333 -294.823429 
L 1429.782143 -291.762263 
L 1430.115308 -288.701096 
L 1430.394145 -285.639929 
L 1430.621871 -282.578763 
L 1430.804639 -279.517596 
L 1430.951448 -276.456429 
L 1431.073892 -273.395263 
L 1431.18579 -270.334096 
L 1431.302691 -267.272929 
L 1431.44129 -264.211763 
L 1431.618777 -261.150596 
L 1431.852163 -258.089429 
L 1432.1576 -255.028263 
L 1432.549746 -251.967096 
L 1433.041182 -248.905929 
L 1433.641928 -245.844763 
L 1434.359059 -242.783596 
L 1435.196441 -239.722429 
L 1436.154592 -236.661263 
L 1437.230667 -233.600096 
L 1438.418561 -230.538929 
L 1439.709125 -227.477763 
L 1441.09047 -224.416596 
L 1442.548366 -221.355429 
L 1444.066684 -218.294263 
L 1445.627905 -215.233096 
L 1447.213633 -212.171929 
L 1448.805128 -209.110763 
L 1450.383815 -206.049596 
L 1451.931758 -202.988429 
L 1453.432089 -199.927263 
L 1454.86936 -196.866096 
L 1456.229809 -193.804929 
L 1457.501541 -190.743763 
L 1458.674604 -187.682596 
L 1459.740962 -184.621429 
L 1460.69438 -181.560263 
L 1461.530224 -178.499096 
L 1462.245193 -175.437929 
L 1462.837014 -172.376763 
L 1463.304112 -169.315596 
L 1463.645299 -166.254429 
L 1463.859492 -163.193263 
L 1463.9455 -160.132096 
L 1463.901886 -157.070929 
L 1463.726927 -154.009763 
L 1463.418676 -150.948596 
L 1462.975114 -147.887429 
L 1462.3944 -144.826263 
L 1461.675179 -141.765096 
L 1460.816942 -138.703929 
L 1459.820399 -135.642763 
L 1458.687836 -132.581596 
L 1457.423437 -129.520429 
L 1456.033524 -126.459263 
L 1454.526715 -123.398096 
L 1452.913966 -120.336929 
L 1451.208505 -117.275763 
L 1449.425638 -114.214596 
L 1447.582452 -111.153429 
L 1445.697422 -108.092263 
L 1443.789936 -105.031096 
L 1441.879769 -101.969929 
L 1439.986542 -98.908763 
L 1438.129169 -95.847596 
L 1436.325348 -92.786429 
L 1434.591099 -89.725263 
L 1432.940381 -86.664096 
L 1431.384805 -83.602929 
L 1429.933438 -80.541763 
L 1428.592719 -77.480596 
L 1427.366477 -74.419429 
L 1426.25604 -71.358263 
L 1425.260428 -68.297096 
L 1424.37661 -65.235929 
L 1423.599813 -62.174763 
L 1422.923854 -59.113596 
L 1422.341491 -56.052429 
L 1421.844757 -52.991263 
L 1421.425286 -49.930096 
z
" style="stroke: #4d4d4d; stroke-opacity: 0.7"/>
    </defs>
    <g clip-path="url(#p5d162a5804)">
     <use xlink:href="#md00c456fd1" x="0" y="504" style="fill: #76808a; fill-opacity: 0.7; stroke: #4d4d4d; stroke-opacity: 0.7"/>
    </g>
   </g>
   <g id="PathCollection_13"/>
   <g id="PathCollection_14"/>
   <g id="matplotlib.axis_5">
    <g id="xtick_5">
     <g id="line2d_21">
      <g>
       <use xlink:href="#m21eb6b9991" x="1154.0625" y="419.08" style="stroke: #000000; stroke-width: 0.8"/>
      </g>
     </g>
     <g id="text_16">
      <!-- S. aureus -->
      <g transform="translate(1097.955 444.31625)scale(0.24 -0.24)">
       <use xlink:href="#DejaVuSans-53"/>
       <use xlink:href="#DejaVuSans-2e" x="63.476562"/>
       <use xlink:href="#DejaVuSans-20" x="95.263672"/>
       <use xlink:href="#DejaVuSans-61" x="127.050781"/>
       <use xlink:href="#DejaVuSans-75" x="188.330078"/>
       <use xlink:href="#DejaVuSans-72" x="251.708984"/>
       <use xlink:href="#DejaVuSans-65" x="290.572266"/>
       <use xlink:href="#DejaVuSans-75" x="352.095703"/>
       <use xlink:href="#DejaVuSans-73" x="415.474609"/>
      </g>
     </g>
    </g>
    <g id="xtick_6">
     <g id="line2d_22">
      <g>
       <use xlink:href="#m21eb6b9991" x="1375.4075" y="419.08" style="stroke: #000000; stroke-width: 0.8"/>
      </g>
     </g>
     <g id="text_17">
      <!-- N. gonorrhoeae -->
      <g transform="translate(1282.379375 444.31625)scale(0.24 -0.24)">
       <use xlink:href="#DejaVuSans-4e"/>
       <use xlink:href="#DejaVuSans-2e" x="74.804688"/>
       <use xlink:href="#DejaVuSans-20" x="106.591797"/>
       <use xlink:href="#DejaVuSans-67" x="138.378906"/>
       <use xlink:href="#DejaVuSans-6f" x="201.855469"/>
       <use xlink:href="#DejaVuSans-6e" x="263.037109"/>
       <use xlink:href="#DejaVuSans-6f" x="326.416016"/>
       <use xlink:href="#DejaVuSans-72" x="387.597656"/>
       <use xlink:href="#DejaVuSans-72" x="426.960938"/>
       <use xlink:href="#DejaVuSans-68" x="466.324219"/>
       <use xlink:href="#DejaVuSans-6f" x="529.703125"/>
       <use xlink:href="#DejaVuSans-65" x="590.884766"/>
       <use xlink:href="#DejaVuSans-61" x="652.408203"/>
       <use xlink:href="#DejaVuSans-65" x="713.6875"/>
      </g>
     </g>
    </g>
    <g id="text_18">
     <!-- Model -->
     <g transform="translate(1228.703125 471.54375)scale(0.24 -0.24)">
      <use xlink:href="#DejaVuSans-4d"/>
      <use xlink:href="#DejaVuSans-6f" x="86.279297"/>
      <use xlink:href="#DejaVuSans-64" x="147.460938"/>
      <use xlink:href="#DejaVuSans-65" x="210.9375"/>
      <use xlink:href="#DejaVuSans-6c" x="272.460938"/>
     </g>
    </g>
   </g>
   <g id="matplotlib.axis_6">
    <g id="ytick_13">
     <g id="line2d_23">
      <g>
       <use xlink:href="#m8230b754d6" x="1043.39" y="419.08" style="stroke: #000000; stroke-width: 0.8"/>
      </g>
     </g>
    </g>
    <g id="ytick_14">
     <g id="line2d_24">
      <g>
       <use xlink:href="#m8230b754d6" x="1043.39" y="345.448" style="stroke: #000000; stroke-width: 0.8"/>
      </g>
     </g>
    </g>
    <g id="ytick_15">
     <g id="line2d_25">
      <g>
       <use xlink:href="#m8230b754d6" x="1043.39" y="271.816" style="stroke: #000000; stroke-width: 0.8"/>
      </g>
     </g>
    </g>
    <g id="ytick_16">
     <g id="line2d_26">
      <g>
       <use xlink:href="#m8230b754d6" x="1043.39" y="198.184" style="stroke: #000000; stroke-width: 0.8"/>
      </g>
     </g>
    </g>
    <g id="ytick_17">
     <g id="line2d_27">
      <g>
       <use xlink:href="#m8230b754d6" x="1043.39" y="124.552" style="stroke: #000000; stroke-width: 0.8"/>
      </g>
     </g>
    </g>
    <g id="ytick_18">
     <g id="line2d_28">
      <g>
       <use xlink:href="#m8230b754d6" x="1043.39" y="50.92" style="stroke: #000000; stroke-width: 0.8"/>
      </g>
     </g>
    </g>
   </g>
   <g id="line2d_29">
    <path d="M 1065.5245 405.148346 
L 1154.0625 405.148346 
" clip-path="url(#p5d162a5804)" style="fill: none; stroke: #4d4d4d; stroke-linecap: square"/>
   </g>
   <g id="line2d_30">
    <path d="M 1286.8695 392.597669 
L 1375.4075 392.597669 
" clip-path="url(#p5d162a5804)" style="fill: none; stroke: #4d4d4d; stroke-linecap: square"/>
   </g>
   <g id="patch_15">
    <path d="M 1043.39 419.08 
L 1043.39 50.92 
" style="fill: none; stroke: #000000; stroke-width: 0.8; stroke-linejoin: miter; stroke-linecap: square"/>
   </g>
   <g id="patch_16">
    <path d="M 1043.39 419.08 
L 1486.08 419.08 
" style="fill: none; stroke: #000000; stroke-width: 0.8; stroke-linejoin: miter; stroke-linecap: square"/>
   </g>
   <g id="PathCollection_15">
    <g clip-path="url(#p5d162a5804)">
     <use xlink:href="#m65ee8820df" x="1109.7935" y="405.148346" style="fill: #6495ed; fill-opacity: 0.7; stroke: #000000; stroke-opacity: 0.7"/>
    </g>
   </g>
   <g id="PathCollection_16">
    <defs>
     <path id="C4_0_7f0499cf43" d="M 0 5 
C 1.326016 5 2.597899 4.473168 3.535534 3.535534 
C 4.473168 2.597899 5 1.326016 5 -0 
C 5 -1.326016 4.473168 -2.597899 3.535534 -3.535534 
C 2.597899 -4.473168 1.326016 -5 0 -5 
C -1.326016 -5 -2.597899 -4.473168 -3.535534 -3.535534 
C -4.473168 -2.597899 -5 -1.326016 -5 0 
C -5 1.326016 -4.473168 2.597899 -3.535534 3.535534 
C -2.597899 4.473168 -1.326016 5 0 5 
z
"/>
    </defs>
    <g clip-path="url(#p5d162a5804)">
     <use xlink:href="#C4_0_7f0499cf43" x="1197.647566" y="363.297667" style="fill: #708090; fill-opacity: 0.7; stroke: #000000; stroke-opacity: 0.7"/>
    </g>
    <g clip-path="url(#p5d162a5804)">
     <use xlink:href="#C4_0_7f0499cf43" x="1208.030268" y="273.358505" style="fill: #708090; fill-opacity: 0.7; stroke: #000000; stroke-opacity: 0.7"/>
    </g>
    <g clip-path="url(#p5d162a5804)">
     <use xlink:href="#C4_0_7f0499cf43" x="1202.666018" y="392.356005" style="fill: #708090; fill-opacity: 0.7; stroke: #000000; stroke-opacity: 0.7"/>
    </g>
    <g clip-path="url(#p5d162a5804)">
     <use xlink:href="#C4_0_7f0499cf43" x="1190.258894" y="263.624956" style="fill: #708090; fill-opacity: 0.7; stroke: #000000; stroke-opacity: 0.7"/>
    </g>
    <g clip-path="url(#p5d162a5804)">
     <use xlink:href="#C4_0_7f0499cf43" x="1188.478306" y="326.411707" style="fill: #708090; fill-opacity: 0.7; stroke: #000000; stroke-opacity: 0.7"/>
    </g>
    <g clip-path="url(#p5d162a5804)">
     <use xlink:href="#C4_0_7f0499cf43" x="1199.251253" y="263.720004" style="fill: #708090; fill-opacity: 0.7; stroke: #000000; stroke-opacity: 0.7"/>
    </g>
    <g clip-path="url(#p5d162a5804)">
     <use xlink:href="#C4_0_7f0499cf43" x="1204.221573" y="387.077051" style="fill: #708090; fill-opacity: 0.7; stroke: #000000; stroke-opacity: 0.7"/>
    </g>
    <g clip-path="url(#p5d162a5804)">
     <use xlink:href="#C4_0_7f0499cf43" x="1196.380366" y="240.642677" style="fill: #708090; fill-opacity: 0.7; stroke: #000000; stroke-opacity: 0.7"/>
    </g>
    <g clip-path="url(#p5d162a5804)">
     <use xlink:href="#C4_0_7f0499cf43" x="1201.716686" y="336.298962" style="fill: #708090; fill-opacity: 0.7; stroke: #000000; stroke-opacity: 0.7"/>
    </g>
    <g clip-path="url(#p5d162a5804)">
     <use xlink:href="#C4_0_7f0499cf43" x="1194.516756" y="240.980027" style="fill: #708090; fill-opacity: 0.7; stroke: #000000; stroke-opacity: 0.7"/>
    </g>
    <g clip-path="url(#p5d162a5804)">
     <use xlink:href="#C4_0_7f0499cf43" x="1207.590452" y="409.547471" style="fill: #708090; fill-opacity: 0.7; stroke: #000000; stroke-opacity: 0.7"/>
    </g>
    <g clip-path="url(#p5d162a5804)">
     <use xlink:href="#C4_0_7f0499cf43" x="1198.762037" y="387.462582" style="fill: #708090; fill-opacity: 0.7; stroke: #000000; stroke-opacity: 0.7"/>
    </g>
    <g clip-path="url(#p5d162a5804)">
     <use xlink:href="#C4_0_7f0499cf43" x="1206.915648" y="411.13086" style="fill: #708090; fill-opacity: 0.7; stroke: #000000; stroke-opacity: 0.7"/>
    </g>
    <g clip-path="url(#p5d162a5804)">
     <use xlink:href="#C4_0_7f0499cf43" x="1187.32321" y="192.425583" style="fill: #708090; fill-opacity: 0.7; stroke: #000000; stroke-opacity: 0.7"/>
    </g>
    <g clip-path="url(#p5d162a5804)">
     <use xlink:href="#C4_0_7f0499cf43" x="1206.769424" y="224.312736" style="fill: #708090; fill-opacity: 0.7; stroke: #000000; stroke-opacity: 0.7"/>
    </g>
    <g clip-path="url(#p5d162a5804)">
     <use xlink:href="#C4_0_7f0499cf43" x="1190.444331" y="368.993526" style="fill: #708090; fill-opacity: 0.7; stroke: #000000; stroke-opacity: 0.7"/>
    </g>
   </g>
   <g id="PathCollection_17">
    <g clip-path="url(#p5d162a5804)">
     <use xlink:href="#m65ee8820df" x="1331.1385" y="392.597669" style="fill: #6495ed; fill-opacity: 0.7; stroke: #000000; stroke-opacity: 0.7"/>
    </g>
   </g>
   <g id="PathCollection_18">
    <defs>
     <path id="C5_0_5bf34636f4" d="M 0 5 
C 1.326016 5 2.597899 4.473168 3.535534 3.535534 
C 4.473168 2.597899 5 1.326016 5 -0 
C 5 -1.326016 4.473168 -2.597899 3.535534 -3.535534 
C 2.597899 -4.473168 1.326016 -5 0 -5 
C -1.326016 -5 -2.597899 -4.473168 -3.535534 -3.535534 
C -4.473168 -2.597899 -5 -1.326016 -5 0 
C -5 1.326016 -4.473168 2.597899 -3.535534 3.535534 
C -2.597899 4.473168 -1.326016 5 0 5 
z
"/>
    </defs>
    <g clip-path="url(#p5d162a5804)">
     <use xlink:href="#C5_0_5bf34636f4" x="1418.318465" y="353.94244" style="fill: #708090; fill-opacity: 0.7; stroke: #000000; stroke-opacity: 0.7"/>
    </g>
    <g clip-path="url(#p5d162a5804)">
     <use xlink:href="#C5_0_5bf34636f4" x="1412.217433" y="333.108447" style="fill: #708090; fill-opacity: 0.7; stroke: #000000; stroke-opacity: 0.7"/>
    </g>
    <g clip-path="url(#p5d162a5804)">
     <use xlink:href="#C5_0_5bf34636f4" x="1425.52091" y="352.708448" style="fill: #708090; fill-opacity: 0.7; stroke: #000000; stroke-opacity: 0.7"/>
    </g>
    <g clip-path="url(#p5d162a5804)">
     <use xlink:href="#C5_0_5bf34636f4" x="1422.490216" y="227.124421" style="fill: #708090; fill-opacity: 0.7; stroke: #000000; stroke-opacity: 0.7"/>
    </g>
    <g clip-path="url(#p5d162a5804)">
     <use xlink:href="#C5_0_5bf34636f4" x="1425.947464" y="393.005737" style="fill: #708090; fill-opacity: 0.7; stroke: #000000; stroke-opacity: 0.7"/>
    </g>
    <g clip-path="url(#p5d162a5804)">
     <use xlink:href="#C5_0_5bf34636f4" x="1426.345663" y="303.264921" style="fill: #708090; fill-opacity: 0.7; stroke: #000000; stroke-opacity: 0.7"/>
    </g>
    <g clip-path="url(#p5d162a5804)">
     <use xlink:href="#C5_0_5bf34636f4" x="1414.043963" y="370.504428" style="fill: #708090; fill-opacity: 0.7; stroke: #000000; stroke-opacity: 0.7"/>
    </g>
    <g clip-path="url(#p5d162a5804)">
     <use xlink:href="#C5_0_5bf34636f4" x="1415.944226" y="316.194791" style="fill: #708090; fill-opacity: 0.7; stroke: #000000; stroke-opacity: 0.7"/>
    </g>
    <g clip-path="url(#p5d162a5804)">
     <use xlink:href="#C5_0_5bf34636f4" x="1421.01415" y="325.26551" style="fill: #708090; fill-opacity: 0.7; stroke: #000000; stroke-opacity: 0.7"/>
    </g>
    <g clip-path="url(#p5d162a5804)">
     <use xlink:href="#C5_0_5bf34636f4" x="1430.577489" y="212.078571" style="fill: #708090; fill-opacity: 0.7; stroke: #000000; stroke-opacity: 0.7"/>
    </g>
    <g clip-path="url(#p5d162a5804)">
     <use xlink:href="#C5_0_5bf34636f4" x="1416.816186" y="392.579972" style="fill: #708090; fill-opacity: 0.7; stroke: #000000; stroke-opacity: 0.7"/>
    </g>
    <g clip-path="url(#p5d162a5804)">
     <use xlink:href="#C5_0_5bf34636f4" x="1409.426606" y="329.462883" style="fill: #708090; fill-opacity: 0.7; stroke: #000000; stroke-opacity: 0.7"/>
    </g>
    <g clip-path="url(#p5d162a5804)">
     <use xlink:href="#C5_0_5bf34636f4" x="1424.278286" y="374.359601" style="fill: #708090; fill-opacity: 0.7; stroke: #000000; stroke-opacity: 0.7"/>
    </g>
    <g clip-path="url(#p5d162a5804)">
     <use xlink:href="#C5_0_5bf34636f4" x="1422.600454" y="279.393526" style="fill: #708090; fill-opacity: 0.7; stroke: #000000; stroke-opacity: 0.7"/>
    </g>
    <g clip-path="url(#p5d162a5804)">
     <use xlink:href="#C5_0_5bf34636f4" x="1426.165573" y="302.559513" style="fill: #708090; fill-opacity: 0.7; stroke: #000000; stroke-opacity: 0.7"/>
    </g>
    <g clip-path="url(#p5d162a5804)">
     <use xlink:href="#C5_0_5bf34636f4" x="1412.713648" y="364.906429" style="fill: #708090; fill-opacity: 0.7; stroke: #000000; stroke-opacity: 0.7"/>
    </g>
   </g>
   <g id="text_19">
    <!-- Fragment = carbapenem -->
    <g transform="translate(1114.196875 44.92)scale(0.24 -0.24)">
     <defs>
      <path id="DejaVuSans-62" d="M 3116 1747 
Q 3116 2381 2855 2742 
Q 2594 3103 2138 3103 
Q 1681 3103 1420 2742 
Q 1159 2381 1159 1747 
Q 1159 1113 1420 752 
Q 1681 391 2138 391 
Q 2594 391 2855 752 
Q 3116 1113 3116 1747 
z
M 1159 2969 
Q 1341 3281 1617 3432 
Q 1894 3584 2278 3584 
Q 2916 3584 3314 3078 
Q 3713 2572 3713 1747 
Q 3713 922 3314 415 
Q 2916 -91 2278 -91 
Q 1894 -91 1617 61 
Q 1341 213 1159 525 
L 1159 0 
L 581 0 
L 581 4863 
L 1159 4863 
L 1159 2969 
z
" transform="scale(0.015625)"/>
      <path id="DejaVuSans-70" d="M 1159 525 
L 1159 -1331 
L 581 -1331 
L 581 3500 
L 1159 3500 
L 1159 2969 
Q 1341 3281 1617 3432 
Q 1894 3584 2278 3584 
Q 2916 3584 3314 3078 
Q 3713 2572 3713 1747 
Q 3713 922 3314 415 
Q 2916 -91 2278 -91 
Q 1894 -91 1617 61 
Q 1341 213 1159 525 
z
M 3116 1747 
Q 3116 2381 2855 2742 
Q 2594 3103 2138 3103 
Q 1681 3103 1420 2742 
Q 1159 2381 1159 1747 
Q 1159 1113 1420 752 
Q 1681 391 2138 391 
Q 2594 391 2855 752 
Q 3116 1113 3116 1747 
z
" transform="scale(0.015625)"/>
     </defs>
     <use xlink:href="#DejaVuSans-46"/>
     <use xlink:href="#DejaVuSans-72" x="50.269531"/>
     <use xlink:href="#DejaVuSans-61" x="91.382812"/>
     <use xlink:href="#DejaVuSans-67" x="152.662109"/>
     <use xlink:href="#DejaVuSans-6d" x="216.138672"/>
     <use xlink:href="#DejaVuSans-65" x="313.550781"/>
     <use xlink:href="#DejaVuSans-6e" x="375.074219"/>
     <use xlink:href="#DejaVuSans-74" x="438.453125"/>
     <use xlink:href="#DejaVuSans-20" x="477.662109"/>
     <use xlink:href="#DejaVuSans-3d" x="509.449219"/>
     <use xlink:href="#DejaVuSans-20" x="593.238281"/>
     <use xlink:href="#DejaVuSans-63" x="625.025391"/>
     <use xlink:href="#DejaVuSans-61" x="680.005859"/>
     <use xlink:href="#DejaVuSans-72" x="741.285156"/>
     <use xlink:href="#DejaVuSans-62" x="782.398438"/>
     <use xlink:href="#DejaVuSans-61" x="845.875"/>
     <use xlink:href="#DejaVuSans-70" x="907.154297"/>
     <use xlink:href="#DejaVuSans-65" x="970.630859"/>
     <use xlink:href="#DejaVuSans-6e" x="1032.154297"/>
     <use xlink:href="#DejaVuSans-65" x="1095.533203"/>
     <use xlink:href="#DejaVuSans-6d" x="1157.056641"/>
    </g>
   </g>
   <g id="legend_1">
    <g id="patch_17">
     <path d="M 1213.425 140.575 
L 1469.28 140.575 
Q 1474.08 140.575 1474.08 135.775 
L 1474.08 67.72 
Q 1474.08 62.92 1469.28 62.92 
L 1213.425 62.92 
Q 1208.625 62.92 1208.625 67.72 
L 1208.625 135.775 
Q 1208.625 140.575 1213.425 140.575 
z
" style="fill: #ffffff; opacity: 0.8; stroke: #cccccc; stroke-linejoin: miter"/>
    </g>
    <g id="PathCollection_19">
     <defs>
      <path id="m7288035e50" d="M 0 3 
C 0.795609 3 1.55874 2.683901 2.12132 2.12132 
C 2.683901 1.55874 3 0.795609 3 0 
C 3 -0.795609 2.683901 -1.55874 2.12132 -2.12132 
C 1.55874 -2.683901 0.795609 -3 0 -3 
C -0.795609 -3 -1.55874 -2.683901 -2.12132 -2.12132 
C -2.683901 -1.55874 -3 -0.795609 -3 0 
C -3 0.795609 -2.683901 1.55874 -2.12132 2.12132 
C -1.55874 2.683901 -0.795609 3 0 3 
z
" style="stroke: #6495ed"/>
     </defs>
     <g>
      <use xlink:href="#m7288035e50" x="1242.225" y="84.45625" style="fill: #6495ed; stroke: #6495ed"/>
     </g>
    </g>
    <g id="text_20">
     <!-- Fragment -->
     <g transform="translate(1285.425 90.75625)scale(0.24 -0.24)">
      <use xlink:href="#DejaVuSans-46"/>
      <use xlink:href="#DejaVuSans-72" x="50.269531"/>
      <use xlink:href="#DejaVuSans-61" x="91.382812"/>
      <use xlink:href="#DejaVuSans-67" x="152.662109"/>
      <use xlink:href="#DejaVuSans-6d" x="216.138672"/>
      <use xlink:href="#DejaVuSans-65" x="313.550781"/>
      <use xlink:href="#DejaVuSans-6e" x="375.074219"/>
      <use xlink:href="#DejaVuSans-74" x="438.453125"/>
     </g>
    </g>
    <g id="PathCollection_20">
     <defs>
      <path id="m3ed7643b99" d="M 0 3 
C 0.795609 3 1.55874 2.683901 2.12132 2.12132 
C 2.683901 1.55874 3 0.795609 3 0 
C 3 -0.795609 2.683901 -1.55874 2.12132 -2.12132 
C 1.55874 -2.683901 0.795609 -3 0 -3 
C -0.795609 -3 -1.55874 -2.683901 -2.12132 -2.12132 
C -2.683901 -1.55874 -3 -0.795609 -3 0 
C -3 0.795609 -2.683901 1.55874 -2.12132 2.12132 
C -1.55874 2.683901 -0.795609 3 0 3 
z
" style="stroke: #708090"/>
     </defs>
     <g>
      <use xlink:href="#m3ed7643b99" x="1242.225" y="119.68375" style="fill: #708090; stroke: #708090"/>
     </g>
    </g>
    <g id="text_21">
     <!-- Full Compound -->
     <g transform="translate(1285.425 125.98375)scale(0.24 -0.24)">
      <defs>
       <path id="DejaVuSans-43" d="M 4122 4306 
L 4122 3641 
Q 3803 3938 3442 4084 
Q 3081 4231 2675 4231 
Q 1875 4231 1450 3742 
Q 1025 3253 1025 2328 
Q 1025 1406 1450 917 
Q 1875 428 2675 428 
Q 3081 428 3442 575 
Q 3803 722 4122 1019 
L 4122 359 
Q 3791 134 3420 21 
Q 3050 -91 2638 -91 
Q 1578 -91 968 557 
Q 359 1206 359 2328 
Q 359 3453 968 4101 
Q 1578 4750 2638 4750 
Q 3056 4750 3426 4639 
Q 3797 4528 4122 4306 
z
" transform="scale(0.015625)"/>
      </defs>
      <use xlink:href="#DejaVuSans-46"/>
      <use xlink:href="#DejaVuSans-75" x="52.019531"/>
      <use xlink:href="#DejaVuSans-6c" x="115.398438"/>
      <use xlink:href="#DejaVuSans-6c" x="143.181641"/>
      <use xlink:href="#DejaVuSans-20" x="170.964844"/>
      <use xlink:href="#DejaVuSans-43" x="202.751953"/>
      <use xlink:href="#DejaVuSans-6f" x="272.576172"/>
      <use xlink:href="#DejaVuSans-6d" x="333.757812"/>
      <use xlink:href="#DejaVuSans-70" x="431.169922"/>
      <use xlink:href="#DejaVuSans-6f" x="494.646484"/>
      <use xlink:href="#DejaVuSans-75" x="555.828125"/>
      <use xlink:href="#DejaVuSans-6e" x="619.207031"/>
      <use xlink:href="#DejaVuSans-64" x="682.585938"/>
     </g>
    </g>
   </g>
  </g>
 </g>
 <defs>
  <clipPath id="peb44600587">
   <rect x="99.17" y="50.92" width="442.69" height="368.16"/>
  </clipPath>
  <clipPath id="p5ef16ecb89">
   <rect x="571.28" y="50.92" width="442.69" height="368.16"/>
  </clipPath>
  <clipPath id="p5d162a5804">
   <rect x="1043.39" y="50.92" width="442.69" height="368.16"/>
  </clipPath>
 </defs>
</svg>
