<?xml version="1.0" encoding="utf-8" standalone="no"?>
<!DOCTYPE svg PUBLIC "-//W3C//DTD SVG 1.1//EN"
  "http://www.w3.org/Graphics/SVG/1.1/DTD/svg11.dtd">
<svg height="288pt" version="1.1" viewBox="0 0 288 288" width="288pt" xmlns="http://www.w3.org/2000/svg" xmlns:xlink="http://www.w3.org/1999/xlink">
 <metadata>
  <rdf:RDF xmlns:cc="http://creativecommons.org/ns#" xmlns:dc="http://purl.org/dc/elements/1.1/" xmlns:rdf="http://www.w3.org/1999/02/22-rdf-syntax-ns#">
   <cc:Work>
    <dc:type rdf:resource="http://purl.org/dc/dcmitype/StillImage"/>
    <dc:date>2023-06-20T14:14:41.882430</dc:date>
    <dc:format>image/svg+xml</dc:format>
    <dc:creator>
     <cc:Agent>
      <dc:title>Matplotlib v3.4.3, https://matplotlib.org/</dc:title>
     </cc:Agent>
    </dc:creator>
   </cc:Work>
  </rdf:RDF>
 </metadata>
 <defs>
  <style type="text/css">*{stroke-linecap:butt;stroke-linejoin:round;}</style>
 </defs>
 <g id="figure_1">
  <g id="patch_1">
   <path d="M 0 288 
L 288 288 
L 288 0 
L 0 0 
z
" style="fill:none;"/>
  </g>
  <g id="axes_1">
   <g id="patch_2">
    <path clip-path="url(#pfdf5cf05b9)" d="M 200.639316 191.912359 
C 193.769848 192.726694 186.805155 192.076364 180.205204 190.00432 
C 173.605252 187.932275 167.518607 184.485156 162.347246 179.890621 
C 157.175885 175.296086 153.036216 169.657556 150.201632 163.347416 
C 147.367049 157.037276 145.901359 150.197566 145.901359 143.28 
C 145.901359 136.362434 147.367049 129.522724 150.201632 123.212584 
C 153.036216 116.902444 157.175885 111.263914 162.347246 106.669379 
C 167.518607 102.074844 173.605252 98.627725 180.205204 96.55568 
C 186.805155 94.483636 193.769848 93.833306 200.639316 94.647641 
C 195.539217 87.65049 189.370026 81.498966 182.358276 76.418956 
C 175.346526 71.338946 167.579105 67.393399 159.341235 64.727197 
C 151.103365 62.060995 142.497127 60.707177 133.838543 60.715454 
C 125.179959 60.723732 116.576325 62.094003 108.343568 64.775951 
C 100.110811 67.457899 92.350948 71.41829 85.348924 76.511697 
C 78.3469 81.605104 72.189482 87.768412 67.102771 94.775302 
C 62.01606 101.782192 58.063089 109.545837 55.389013 117.781155 
C 52.714937 126.016472 51.352891 134.621412 51.352891 143.28 
C 51.352891 151.938588 52.714937 160.543528 55.389013 168.778845 
C 58.063089 177.014163 62.01606 184.777808 67.102771 191.784698 
C 72.189482 198.791588 78.3469 204.954896 85.348924 210.048303 
C 92.350948 215.14171 100.110811 219.102101 108.343568 221.784049 
C 116.576325 224.465997 125.179959 225.836268 133.838543 225.844546 
C 142.497127 225.852823 151.103365 224.499005 159.341235 221.832803 
C 167.579105 219.166601 175.346526 215.221054 182.358276 210.141044 
C 189.370026 205.061034 195.539217 198.90951 200.639316 191.912359 
" style="fill:#d3d3d3;opacity:0.7;"/>
   </g>
   <g id="patch_3">
    <path clip-path="url(#pfdf5cf05b9)" d="M 200.639316 94.647641 
C 210.933266 108.770569 216.482058 125.803659 216.482058 143.28 
C 216.482058 160.756341 210.933266 177.789431 200.639316 191.912359 
C 212.542705 190.501281 223.52346 184.767904 231.484855 175.806988 
C 239.446249 166.846072 243.847109 155.266735 243.847109 143.28 
C 243.847109 131.293265 239.446249 119.713928 231.484855 110.753012 
C 223.52346 101.792096 212.542705 96.058719 200.639316 94.647641 
" style="fill:#6495ed;opacity:0.7;"/>
   </g>
   <g id="patch_4">
    <path clip-path="url(#pfdf5cf05b9)" d="M 200.639316 191.912359 
C 210.933266 177.789431 216.482058 160.756341 216.482058 143.28 
C 216.482058 125.803659 210.933266 108.770569 200.639316 94.647641 
C 193.769848 93.833306 186.805155 94.483636 180.205204 96.55568 
C 173.605252 98.627725 167.518607 102.074844 162.347246 106.669379 
C 157.175885 111.263914 153.036216 116.902444 150.201632 123.212584 
C 147.367049 129.522724 145.901359 136.362434 145.901359 143.28 
C 145.901359 150.197566 147.367049 157.037276 150.201632 163.347416 
C 153.036216 169.657556 157.175885 175.296086 162.347246 179.890621 
C 167.518607 184.485156 173.605252 187.932275 180.205204 190.00432 
C 186.805155 192.076364 193.769848 192.726694 200.639316 191.912359 
" style="fill:#dafcff;opacity:0.7;"/>
   </g>
   <g id="patch_5">
    <path clip-path="url(#pfdf5cf05b9)" d="M 133.917475 225.844583 
C 155.813858 225.844583 176.81637 217.145058 192.299451 201.661977 
C 207.782533 186.178896 216.482058 165.176383 216.482058 143.28 
C 216.482058 121.383617 207.782533 100.381104 192.299451 84.898023 
C 176.81637 69.414942 155.813858 60.715417 133.917475 60.715417 
C 112.021091 60.715417 91.018579 69.414942 75.535498 84.898023 
C 60.052417 100.381104 51.352891 121.383617 51.352891 143.28 
C 51.352891 165.176383 60.052417 186.178896 75.535498 201.661977 
C 91.018579 217.145058 112.021091 225.844583 133.917475 225.844583 
z
" style="fill:none;stroke:#000000;stroke-linejoin:miter;"/>
   </g>
   <g id="patch_6">
    <path clip-path="url(#pfdf5cf05b9)" d="M 194.874234 192.252875 
C 207.861992 192.252875 220.319554 187.092784 229.503286 177.909052 
C 238.687018 168.72532 243.847109 156.267758 243.847109 143.28 
C 243.847109 130.292242 238.687018 117.83468 229.503286 108.650948 
C 220.319554 99.467216 207.861992 94.307125 194.874234 94.307125 
C 181.886475 94.307125 169.428914 99.467216 160.245182 108.650948 
C 151.06145 117.83468 145.901359 130.292242 145.901359 143.28 
C 145.901359 156.267758 151.06145 168.72532 160.245182 177.909052 
C 169.428914 187.092784 181.886475 192.252875 194.874234 192.252875 
z
" style="fill:none;stroke:#000000;stroke-linejoin:miter;"/>
   </g>
   <g id="text_1">
    <!-- 945 -->
    <g transform="translate(84.3115 147.419062)scale(0.15 -0.15)">
     <defs>
      <path d="M 703 97 
L 703 672 
Q 941 559 1184 500 
Q 1428 441 1663 441 
Q 2288 441 2617 861 
Q 2947 1281 2994 2138 
Q 2813 1869 2534 1725 
Q 2256 1581 1919 1581 
Q 1219 1581 811 2004 
Q 403 2428 403 3163 
Q 403 3881 828 4315 
Q 1253 4750 1959 4750 
Q 2769 4750 3195 4129 
Q 3622 3509 3622 2328 
Q 3622 1225 3098 567 
Q 2575 -91 1691 -91 
Q 1453 -91 1209 -44 
Q 966 3 703 97 
z
M 1959 2075 
Q 2384 2075 2632 2365 
Q 2881 2656 2881 3163 
Q 2881 3666 2632 3958 
Q 2384 4250 1959 4250 
Q 1534 4250 1286 3958 
Q 1038 3666 1038 3163 
Q 1038 2656 1286 2365 
Q 1534 2075 1959 2075 
z
" id="DejaVuSans-39" transform="scale(0.015625)"/>
      <path d="M 2419 4116 
L 825 1625 
L 2419 1625 
L 2419 4116 
z
M 2253 4666 
L 3047 4666 
L 3047 1625 
L 3713 1625 
L 3713 1100 
L 3047 1100 
L 3047 0 
L 2419 0 
L 2419 1100 
L 313 1100 
L 313 1709 
L 2253 4666 
z
" id="DejaVuSans-34" transform="scale(0.015625)"/>
      <path d="M 691 4666 
L 3169 4666 
L 3169 4134 
L 1269 4134 
L 1269 2991 
Q 1406 3038 1543 3061 
Q 1681 3084 1819 3084 
Q 2600 3084 3056 2656 
Q 3513 2228 3513 1497 
Q 3513 744 3044 326 
Q 2575 -91 1722 -91 
Q 1428 -91 1123 -41 
Q 819 9 494 109 
L 494 744 
Q 775 591 1075 516 
Q 1375 441 1709 441 
Q 2250 441 2565 725 
Q 2881 1009 2881 1497 
Q 2881 1984 2565 2268 
Q 2250 2553 1709 2553 
Q 1456 2553 1204 2497 
Q 953 2441 691 2322 
L 691 4666 
z
" id="DejaVuSans-35" transform="scale(0.015625)"/>
     </defs>
     <use xlink:href="#DejaVuSans-39"/>
     <use x="63.623047" xlink:href="#DejaVuSans-34"/>
     <use x="127.246094" xlink:href="#DejaVuSans-35"/>
    </g>
   </g>
   <g id="text_2">
    <!-- 127 -->
    <g transform="translate(215.848958 147.419062)scale(0.15 -0.15)">
     <defs>
      <path d="M 794 531 
L 1825 531 
L 1825 4091 
L 703 3866 
L 703 4441 
L 1819 4666 
L 2450 4666 
L 2450 531 
L 3481 531 
L 3481 0 
L 794 0 
L 794 531 
z
" id="DejaVuSans-31" transform="scale(0.015625)"/>
      <path d="M 1228 531 
L 3431 531 
L 3431 0 
L 469 0 
L 469 531 
Q 828 903 1448 1529 
Q 2069 2156 2228 2338 
Q 2531 2678 2651 2914 
Q 2772 3150 2772 3378 
Q 2772 3750 2511 3984 
Q 2250 4219 1831 4219 
Q 1534 4219 1204 4116 
Q 875 4013 500 3803 
L 500 4441 
Q 881 4594 1212 4672 
Q 1544 4750 1819 4750 
Q 2544 4750 2975 4387 
Q 3406 4025 3406 3419 
Q 3406 3131 3298 2873 
Q 3191 2616 2906 2266 
Q 2828 2175 2409 1742 
Q 1991 1309 1228 531 
z
" id="DejaVuSans-32" transform="scale(0.015625)"/>
      <path d="M 525 4666 
L 3525 4666 
L 3525 4397 
L 1831 0 
L 1172 0 
L 2766 4134 
L 525 4134 
L 525 4666 
z
" id="DejaVuSans-37" transform="scale(0.015625)"/>
     </defs>
     <use xlink:href="#DejaVuSans-31"/>
     <use x="63.623047" xlink:href="#DejaVuSans-32"/>
     <use x="127.246094" xlink:href="#DejaVuSans-37"/>
    </g>
   </g>
   <g id="text_3">
    <!-- 317 -->
    <g transform="translate(166.876083 147.419062)scale(0.15 -0.15)">
     <defs>
      <path d="M 2597 2516 
Q 3050 2419 3304 2112 
Q 3559 1806 3559 1356 
Q 3559 666 3084 287 
Q 2609 -91 1734 -91 
Q 1441 -91 1130 -33 
Q 819 25 488 141 
L 488 750 
Q 750 597 1062 519 
Q 1375 441 1716 441 
Q 2309 441 2620 675 
Q 2931 909 2931 1356 
Q 2931 1769 2642 2001 
Q 2353 2234 1838 2234 
L 1294 2234 
L 1294 2753 
L 1863 2753 
Q 2328 2753 2575 2939 
Q 2822 3125 2822 3475 
Q 2822 3834 2567 4026 
Q 2313 4219 1838 4219 
Q 1578 4219 1281 4162 
Q 984 4106 628 3988 
L 628 4550 
Q 988 4650 1302 4700 
Q 1616 4750 1894 4750 
Q 2613 4750 3031 4423 
Q 3450 4097 3450 3541 
Q 3450 3153 3228 2886 
Q 3006 2619 2597 2516 
z
" id="DejaVuSans-33" transform="scale(0.015625)"/>
     </defs>
     <use xlink:href="#DejaVuSans-33"/>
     <use x="63.623047" xlink:href="#DejaVuSans-31"/>
     <use x="127.246094" xlink:href="#DejaVuSans-37"/>
    </g>
   </g>
   <g id="text_4">
    <!-- NG Active -->
    <g transform="translate(45.101537 246.098644)scale(0.18 -0.18)">
     <defs>
      <path d="M 628 4666 
L 1478 4666 
L 3547 763 
L 3547 4666 
L 4159 4666 
L 4159 0 
L 3309 0 
L 1241 3903 
L 1241 0 
L 628 0 
L 628 4666 
z
" id="DejaVuSans-4e" transform="scale(0.015625)"/>
      <path d="M 3809 666 
L 3809 1919 
L 2778 1919 
L 2778 2438 
L 4434 2438 
L 4434 434 
Q 4069 175 3628 42 
Q 3188 -91 2688 -91 
Q 1594 -91 976 548 
Q 359 1188 359 2328 
Q 359 3472 976 4111 
Q 1594 4750 2688 4750 
Q 3144 4750 3555 4637 
Q 3966 4525 4313 4306 
L 4313 3634 
Q 3963 3931 3569 4081 
Q 3175 4231 2741 4231 
Q 1884 4231 1454 3753 
Q 1025 3275 1025 2328 
Q 1025 1384 1454 906 
Q 1884 428 2741 428 
Q 3075 428 3337 486 
Q 3600 544 3809 666 
z
" id="DejaVuSans-47" transform="scale(0.015625)"/>
      <path id="DejaVuSans-20" transform="scale(0.015625)"/>
      <path d="M 2188 4044 
L 1331 1722 
L 3047 1722 
L 2188 4044 
z
M 1831 4666 
L 2547 4666 
L 4325 0 
L 3669 0 
L 3244 1197 
L 1141 1197 
L 716 0 
L 50 0 
L 1831 4666 
z
" id="DejaVuSans-41" transform="scale(0.015625)"/>
      <path d="M 3122 3366 
L 3122 2828 
Q 2878 2963 2633 3030 
Q 2388 3097 2138 3097 
Q 1578 3097 1268 2742 
Q 959 2388 959 1747 
Q 959 1106 1268 751 
Q 1578 397 2138 397 
Q 2388 397 2633 464 
Q 2878 531 3122 666 
L 3122 134 
Q 2881 22 2623 -34 
Q 2366 -91 2075 -91 
Q 1284 -91 818 406 
Q 353 903 353 1747 
Q 353 2603 823 3093 
Q 1294 3584 2113 3584 
Q 2378 3584 2631 3529 
Q 2884 3475 3122 3366 
z
" id="DejaVuSans-63" transform="scale(0.015625)"/>
      <path d="M 1172 4494 
L 1172 3500 
L 2356 3500 
L 2356 3053 
L 1172 3053 
L 1172 1153 
Q 1172 725 1289 603 
Q 1406 481 1766 481 
L 2356 481 
L 2356 0 
L 1766 0 
Q 1100 0 847 248 
Q 594 497 594 1153 
L 594 3053 
L 172 3053 
L 172 3500 
L 594 3500 
L 594 4494 
L 1172 4494 
z
" id="DejaVuSans-74" transform="scale(0.015625)"/>
      <path d="M 603 3500 
L 1178 3500 
L 1178 0 
L 603 0 
L 603 3500 
z
M 603 4863 
L 1178 4863 
L 1178 4134 
L 603 4134 
L 603 4863 
z
" id="DejaVuSans-69" transform="scale(0.015625)"/>
      <path d="M 191 3500 
L 800 3500 
L 1894 563 
L 2988 3500 
L 3597 3500 
L 2284 0 
L 1503 0 
L 191 3500 
z
" id="DejaVuSans-76" transform="scale(0.015625)"/>
      <path d="M 3597 1894 
L 3597 1613 
L 953 1613 
Q 991 1019 1311 708 
Q 1631 397 2203 397 
Q 2534 397 2845 478 
Q 3156 559 3463 722 
L 3463 178 
Q 3153 47 2828 -22 
Q 2503 -91 2169 -91 
Q 1331 -91 842 396 
Q 353 884 353 1716 
Q 353 2575 817 3079 
Q 1281 3584 2069 3584 
Q 2775 3584 3186 3129 
Q 3597 2675 3597 1894 
z
M 3022 2063 
Q 3016 2534 2758 2815 
Q 2500 3097 2075 3097 
Q 1594 3097 1305 2825 
Q 1016 2553 972 2059 
L 3022 2063 
z
" id="DejaVuSans-65" transform="scale(0.015625)"/>
     </defs>
     <use xlink:href="#DejaVuSans-4e"/>
     <use x="74.804688" xlink:href="#DejaVuSans-47"/>
     <use x="152.294922" xlink:href="#DejaVuSans-20"/>
     <use x="184.082031" xlink:href="#DejaVuSans-41"/>
     <use x="250.740234" xlink:href="#DejaVuSans-63"/>
     <use x="305.720703" xlink:href="#DejaVuSans-74"/>
     <use x="344.929688" xlink:href="#DejaVuSans-69"/>
     <use x="372.712891" xlink:href="#DejaVuSans-76"/>
     <use x="431.892578" xlink:href="#DejaVuSans-65"/>
    </g>
   </g>
   <g id="text_5">
    <!-- SA Active -->
    <g transform="translate(194.874234 212.506935)scale(0.18 -0.18)">
     <defs>
      <path d="M 3425 4513 
L 3425 3897 
Q 3066 4069 2747 4153 
Q 2428 4238 2131 4238 
Q 1616 4238 1336 4038 
Q 1056 3838 1056 3469 
Q 1056 3159 1242 3001 
Q 1428 2844 1947 2747 
L 2328 2669 
Q 3034 2534 3370 2195 
Q 3706 1856 3706 1288 
Q 3706 609 3251 259 
Q 2797 -91 1919 -91 
Q 1588 -91 1214 -16 
Q 841 59 441 206 
L 441 856 
Q 825 641 1194 531 
Q 1563 422 1919 422 
Q 2459 422 2753 634 
Q 3047 847 3047 1241 
Q 3047 1584 2836 1778 
Q 2625 1972 2144 2069 
L 1759 2144 
Q 1053 2284 737 2584 
Q 422 2884 422 3419 
Q 422 4038 858 4394 
Q 1294 4750 2059 4750 
Q 2388 4750 2728 4690 
Q 3069 4631 3425 4513 
z
" id="DejaVuSans-53" transform="scale(0.015625)"/>
     </defs>
     <use xlink:href="#DejaVuSans-53"/>
     <use x="65.351562" xlink:href="#DejaVuSans-41"/>
     <use x="133.759766" xlink:href="#DejaVuSans-20"/>
     <use x="165.546875" xlink:href="#DejaVuSans-41"/>
     <use x="232.205078" xlink:href="#DejaVuSans-63"/>
     <use x="287.185547" xlink:href="#DejaVuSans-74"/>
     <use x="326.394531" xlink:href="#DejaVuSans-69"/>
     <use x="354.177734" xlink:href="#DejaVuSans-76"/>
     <use x="413.357422" xlink:href="#DejaVuSans-65"/>
    </g>
   </g>
   <g id="text_6">
    <!-- 37,223 -->
    <g transform="translate(172.81129 66.515543)scale(0.15 -0.15)">
     <defs>
      <path d="M 750 794 
L 1409 794 
L 1409 256 
L 897 -744 
L 494 -744 
L 750 256 
L 750 794 
z
" id="DejaVuSans-2c" transform="scale(0.015625)"/>
     </defs>
     <use xlink:href="#DejaVuSans-33"/>
     <use x="63.623047" xlink:href="#DejaVuSans-37"/>
     <use x="127.246094" xlink:href="#DejaVuSans-2c"/>
     <use x="159.033203" xlink:href="#DejaVuSans-32"/>
     <use x="222.65625" xlink:href="#DejaVuSans-32"/>
     <use x="286.279297" xlink:href="#DejaVuSans-33"/>
    </g>
   </g>
  </g>
 </g>
 <defs>
  <clipPath id="pfdf5cf05b9">
   <rect height="195.834949" width="223.2" x="36" y="45.362525"/>
  </clipPath>
 </defs>
</svg>
